<svg width="40" height="40" viewBox="0 0 40 40" fill="none" xmlns="http://www.w3.org/2000/svg">
<path d="M20 0C16.0444 0 12.1776 1.17298 8.8886 3.37061C5.59962 5.56823 3.03617 8.69181 1.52242 12.3463C0.00866569 16.0008 -0.387401 20.0222 0.384303 23.9018C1.15601 27.7814 3.06082 31.3451 5.85787 34.1421C8.65492 36.9392 12.2186 38.844 16.0982 39.6157C19.9778 40.3874 23.9991 39.9913 27.6537 38.4776C31.3082 36.9638 34.4318 34.4004 36.6294 31.1114C38.827 27.8224 40 23.9556 40 20C39.9944 14.6974 37.8855 9.61356 34.136 5.86405C30.3864 2.11453 25.3026 0.00559965 20 0ZM28.7808 21.0885L22.6269 27.2423C22.3382 27.531 21.9467 27.6932 21.5385 27.6932C21.1302 27.6932 20.7387 27.531 20.45 27.2423C20.1613 26.9536 19.9991 26.5621 19.9991 26.1538C19.9991 25.7456 20.1613 25.3541 20.45 25.0654L23.9789 21.5385H12.3077C11.8997 21.5385 11.5084 21.3764 11.2198 21.0879C10.9313 20.7993 10.7692 20.408 10.7692 20C10.7692 19.592 10.9313 19.2007 11.2198 18.9121C11.5084 18.6236 11.8997 18.4615 12.3077 18.4615H23.9789L20.45 14.9346C20.1613 14.6459 19.9991 14.2544 19.9991 13.8462C19.9991 13.4379 20.1613 13.0464 20.45 12.7577C20.7387 12.469 21.1302 12.3068 21.5385 12.3068C21.9467 12.3068 22.3382 12.469 22.6269 12.7577L28.7808 18.9115C28.9238 19.0544 29.0373 19.2241 29.1147 19.4109C29.1921 19.5976 29.232 19.7978 29.232 20C29.232 20.2022 29.1921 20.4024 29.1147 20.5891C29.0373 20.7759 28.9238 20.9456 28.7808 21.0885Z" fill="#010231"/>
</svg>
