<svg width="40" height="40" viewBox="0 0 40 40" fill="none" xmlns="http://www.w3.org/2000/svg">
<path d="M20 0C16.0444 0 12.1776 1.17298 8.8886 3.37061C5.59962 5.56824 3.03617 8.69181 1.52242 12.3463C0.00866562 16.0008 -0.387401 20.0222 0.384303 23.9018C1.15601 27.7814 3.06082 31.3451 5.85787 34.1421C8.65492 36.9392 12.2186 38.844 16.0982 39.6157C19.9778 40.3874 23.9992 39.9913 27.6537 38.4776C31.3082 36.9638 34.4318 34.4004 36.6294 31.1114C38.827 27.8224 40 23.9556 40 20C39.9944 14.6974 37.8855 9.61356 34.136 5.86405C30.3864 2.11453 25.3026 0.00559965 20 0ZM27.6923 21.5385H16.0212L19.55 25.0654C19.6929 25.2083 19.8063 25.378 19.8837 25.5648C19.961 25.7515 20.0009 25.9517 20.0009 26.1538C20.0009 26.356 19.961 26.5562 19.8837 26.7429C19.8063 26.9297 19.6929 27.0994 19.55 27.2423C19.4071 27.3852 19.2374 27.4986 19.0506 27.576C18.8639 27.6533 18.6637 27.6932 18.4615 27.6932C18.2594 27.6932 18.0592 27.6533 17.8725 27.576C17.6857 27.4986 17.516 27.3852 17.3731 27.2423L11.2192 21.0885C11.0762 20.9456 10.9627 20.7759 10.8853 20.5891C10.8079 20.4024 10.768 20.2022 10.768 20C10.768 19.7978 10.8079 19.5976 10.8853 19.4109C10.9627 19.2241 11.0762 19.0544 11.2192 18.9115L17.3731 12.7577C17.6618 12.469 18.0533 12.3068 18.4615 12.3068C18.8698 12.3068 19.2613 12.469 19.55 12.7577C19.8387 13.0464 20.0009 13.4379 20.0009 13.8462C20.0009 14.2544 19.8387 14.6459 19.55 14.9346L16.0212 18.4615H27.6923C28.1003 18.4615 28.4917 18.6236 28.7802 18.9121C29.0687 19.2007 29.2308 19.592 29.2308 20C29.2308 20.408 29.0687 20.7993 28.7802 21.0879C28.4917 21.3764 28.1003 21.5385 27.6923 21.5385Z" fill="#010231"/>
</svg>
