<svg width="28" height="28" viewBox="0 0 28 28" fill="none" xmlns="http://www.w3.org/2000/svg">
<g clip-path="url(#clip0_741_1229)">
<path d="M5.83333 4.66666H10.5L12.8333 10.5L9.91667 12.25C11.1661 14.7834 13.2165 16.8339 15.75 18.0833L17.5 15.1667L23.3333 17.5V22.1667C23.3333 22.7855 23.0875 23.379 22.6499 23.8166C22.2123 24.2542 21.6188 24.5 21 24.5C16.4491 24.2234 12.1568 22.2909 8.93297 19.067C5.70909 15.8431 3.77656 11.5508 3.5 6.99999C3.5 6.38115 3.74583 5.78766 4.18342 5.35007C4.621 4.91249 5.21449 4.66666 5.83333 4.66666Z" stroke="black" stroke-width="1.75" stroke-linecap="round" stroke-linejoin="round"/>
<path d="M17.5 8.16666C18.1188 8.16666 18.7123 8.41249 19.1499 8.85007C19.5875 9.28766 19.8333 9.88115 19.8333 10.5" stroke="black" stroke-width="1.75" stroke-linecap="round" stroke-linejoin="round"/>
<path d="M17.5 3.5C19.3565 3.5 21.137 4.2375 22.4497 5.55025C23.7625 6.86301 24.5 8.64348 24.5 10.5" stroke="black" stroke-width="1.75" stroke-linecap="round" stroke-linejoin="round"/>
</g>
<defs>
<clipPath id="clip0_741_1229">
<rect width="28" height="28" fill="white"/>
</clipPath>
</defs>
</svg>
