<svg width="64" height="64" viewBox="0 0 64 64" fill="none" xmlns="http://www.w3.org/2000/svg">
<path d="M60.8 0H3.2C1.44 0 0 1.44 0 3.2V50.1333C0 51.8933 1.44 53.3333 3.2 53.3333H25.2267L22.6667 61.8667H19.2V64H44.8V61.8667H41.3333L38.7733 53.3333H60.8C62.56 53.3333 64 51.8933 64 50.1333V3.2C64 1.44 62.56 0 60.8 0ZM39.0933 61.8667H24.9067L27.4667 53.3333H36.5333L39.0933 61.8667ZM61.8667 50.1333C61.8667 50.72 61.3867 51.2 60.8 51.2H3.2C2.61333 51.2 2.13333 50.72 2.13333 50.1333V46.9333H61.8667V50.1333ZM61.8667 44.8H2.13333V3.2C2.13333 2.61333 2.61333 2.13333 3.2 2.13333H60.8C61.3867 2.13333 61.8667 2.61333 61.8667 3.2V44.8Z" fill="black"/>
<path d="M56.532 18.1339H42.4787C42.1987 18.1339 41.9187 18.0272 41.7187 17.8272L38.7054 14.8005C38.1054 14.2005 37.292 13.8672 36.4387 13.8672H24.532C22.772 13.8672 21.332 15.3072 21.332 17.0672V39.4672C21.332 41.2272 22.772 42.6672 24.532 42.6672H56.532C58.292 42.6672 59.732 41.2272 59.732 39.4672V21.3339C59.732 19.5739 58.292 18.1339 56.532 18.1339ZM57.5987 39.4672C57.5987 40.0539 57.1187 40.5339 56.532 40.5339H24.532C23.9454 40.5339 23.4654 40.0539 23.4654 39.4672V17.0672C23.4654 16.4805 23.9454 16.0005 24.532 16.0005H36.452C36.732 16.0005 37.012 16.1072 37.212 16.3072L40.2254 19.3205C40.8254 19.9205 41.6387 20.2539 42.492 20.2539H56.532C57.1187 20.2539 57.5987 20.7339 57.5987 21.3205V39.4672Z" fill="black"/>
<path d="M33.373 23.7734L27.293 29.8668L33.373 35.9601L34.893 34.4401L30.3063 29.8668L34.893 25.2934L33.373 23.7734Z" fill="black"/>
<path d="M42.8019 25.079L37.4668 34.6836L39.3318 35.7195L44.6669 26.115L42.8019 25.079Z" fill="black"/>
<path d="M46.1738 25.2934L50.7605 29.8668L46.1738 34.4401L47.6938 35.9601L53.7738 29.8668L47.6938 23.7734L46.1738 25.2934Z" fill="black"/>
<path d="M24.9076 6.39896L26.6276 10.4256L30.4409 12.0123L34.5209 10.3723L36.6276 12.4923L38.1342 10.9723L35.0409 7.87896L30.4542 9.70563L28.2542 8.78563L26.3076 4.26562H20.6276L18.6809 8.78563L16.4809 9.70563L11.8942 7.87896L7.88091 11.8923L9.70758 16.479L8.78758 18.679L4.26758 20.6256V26.3056L8.78758 28.2523L9.70758 30.4523L7.88091 35.039L11.8942 39.0523L16.4809 37.2256L18.7876 38.1856L19.6142 36.2123L16.4942 34.919L12.4142 36.559L10.3742 34.519L12.0142 30.439L10.4276 26.6256L6.40091 24.9056V22.0256L10.4276 20.3056L12.0142 16.4923L10.3742 12.4123L12.4142 10.3723L16.4942 12.0123L20.3076 10.4256L22.0276 6.39896H24.9076Z" fill="black"/>
<path d="M19.6809 15.8129L18.7343 13.9062C13.4543 16.5329 11.3076 22.9329 13.9209 28.2129C14.9609 30.2929 16.6409 31.9862 18.7343 33.0263L19.6809 31.1196C15.4543 29.0262 13.7343 23.9062 15.8276 19.6796C16.6543 17.9996 18.0009 16.6529 19.6809 15.8129Z" fill="black"/>
</svg>
