<svg width="30" height="31" viewBox="0 0 30 31" fill="none" xmlns="http://www.w3.org/2000/svg">
<path d="M14.9995 4.95508C12.4043 4.95481 9.89617 5.89078 7.93562 7.59112C5.97508 9.29147 4.69377 11.642 4.32698 14.2111C3.9602 16.7803 4.53257 19.3955 5.93898 21.5765C7.34539 23.7575 9.49143 25.358 11.983 26.0839C11.9698 26.0443 11.9561 26.0053 11.945 25.9633C11.8595 25.631 11.7574 25.3076 11.645 24.9919C9.46834 24.2029 7.63944 22.6718 6.47982 20.6679C5.32021 18.6639 4.90411 16.3153 5.30466 14.035C5.70521 11.7546 6.89678 9.68839 8.66991 8.19957C10.443 6.71075 12.6842 5.89461 14.9995 5.89461C17.3148 5.89461 19.556 6.71075 21.3291 8.19957C23.1022 9.68839 24.2938 11.7546 24.6944 14.035C25.0949 16.3153 24.6788 18.6639 23.5192 20.6679C22.3596 22.6718 20.5307 24.2029 18.354 24.9919C18.2421 25.3062 18.1404 25.6279 18.0555 25.9581C18.0442 26.0018 18.0302 26.0426 18.0166 26.0837C20.5081 25.3577 22.654 23.7572 24.0603 21.5761C25.4665 19.3951 26.0388 16.7799 25.672 14.2108C25.3051 11.6418 24.0238 9.29131 22.0632 7.59103C20.1027 5.89075 17.5946 4.95481 14.9995 4.95508Z" fill="#184065"/>
<path d="M20.3221 19.4295C20.5611 19.0241 20.7627 18.6491 20.9384 18.2858C21.4744 17.248 21.7677 16.1021 21.7962 14.9344C21.7962 10.983 18.8081 7.76758 15.1356 7.76758H14.8637C11.1913 7.76758 8.20312 10.983 8.20312 14.9344C8.23162 16.1013 8.52493 17.2465 9.0609 18.2835C9.23667 18.6491 9.43822 19.0241 9.67727 19.4272C9.8343 19.692 10.0218 19.985 10.2187 20.292L10.2397 20.3224C11.0999 21.6653 12.2811 23.5051 12.8529 25.7245C12.9083 25.9291 13.0185 26.1147 13.1716 26.2612C13.3463 26.425 13.5767 26.5163 13.8161 26.5167H14.1442V19.3006C13.6339 19.1499 13.1787 18.8534 12.8347 18.4475C12.4906 18.0416 12.2727 17.544 12.2077 17.0158C12.1427 16.4877 12.2335 15.9521 12.4689 15.4749C12.7043 14.9977 13.074 14.5996 13.5326 14.3298V16.8796L14.9997 17.7397L16.4668 16.8796V14.3298C16.9254 14.5996 17.2951 14.9977 17.5304 15.4749C17.7658 15.9521 17.8566 16.4877 17.7916 17.0158C17.7266 17.544 17.5087 18.0416 17.1647 18.4475C16.8206 18.8534 16.3654 19.1499 15.8551 19.3006V26.5167H16.1832C16.4216 26.5165 16.651 26.4261 16.8254 26.2635C16.9793 26.1173 17.0904 25.9317 17.1464 25.7269C17.7183 23.5051 18.8971 21.6677 19.7596 20.3248C19.9682 19.999 20.1604 19.699 20.3221 19.4295ZM18.9721 19.8162C18.1173 21.0815 17.3874 22.4268 16.7926 23.8332V19.9217C17.3696 19.6179 17.855 19.1657 18.1989 18.6116C18.5427 18.0575 18.7324 17.4217 18.7484 16.7699C18.7644 16.118 18.6061 15.4737 18.2899 14.9034C17.9737 14.3331 17.511 13.8576 16.9496 13.5259C16.8037 13.4384 16.6368 13.3922 16.4668 13.3923C16.3049 13.3919 16.1457 13.4339 16.0051 13.5142C15.8609 13.596 15.7409 13.7146 15.6573 13.8579C15.5738 14.0011 15.5296 14.1639 15.5293 14.3298V16.3429L14.9997 16.6546L14.47 16.3429V14.3298C14.4697 14.1639 14.4256 14.0011 14.342 13.8579C14.2585 13.7146 14.1385 13.596 13.9942 13.5142C13.8537 13.4339 13.6945 13.3919 13.5326 13.3923C13.3625 13.3922 13.1956 13.4384 13.0498 13.5259C12.4884 13.8576 12.0257 14.3331 11.7094 14.9034C11.3932 15.4737 11.2349 16.118 11.251 16.7699C11.267 17.4217 11.4567 18.0575 11.8005 18.6116C12.1443 19.1657 12.6298 19.6179 13.2068 19.9217V23.8309C12.6117 22.4258 11.8825 21.0814 11.0295 19.8162C10.8233 19.4975 10.6382 19.2092 10.4835 18.9491C10.2585 18.5694 10.0687 18.2178 9.9046 17.878C9.43133 16.967 9.17014 15.9607 9.14058 14.9344C9.14058 11.4986 11.7069 8.70503 14.8637 8.70503H15.1356C18.2925 8.70503 20.8588 11.4986 20.8588 14.9344C20.8292 15.9607 20.568 16.9669 20.0947 17.878C19.9307 18.2178 19.7408 18.567 19.5135 18.9514C19.3612 19.2069 19.176 19.4975 18.9721 19.8162Z" fill="#184065"/>
<path d="M28.0913 12.1393H27.6216C27.3254 11.0235 26.881 9.95252 26.3 8.95492L26.634 8.62098C26.9911 8.26302 27.1917 7.77801 27.1917 7.27236C27.1917 6.76671 26.9911 6.2817 26.634 5.92374L24.5767 3.8665C24.2191 3.50882 23.7339 3.30789 23.2281 3.30789C22.7223 3.30789 22.2372 3.50882 21.8795 3.8665L21.5456 4.20044C20.548 3.61953 19.477 3.17505 18.3612 2.87889V2.40919C18.3606 1.90353 18.1595 1.41875 17.8019 1.0612C17.4444 0.703649 16.9596 0.502525 16.4539 0.501953L13.5446 0.501953C13.0389 0.502526 12.5542 0.70365 12.1966 1.0612C11.8391 1.41876 11.6379 1.90354 11.6374 2.40919V2.87889C10.5216 3.17505 9.45057 3.61953 8.45297 4.20044L8.11903 3.86651C7.94193 3.6894 7.73168 3.54892 7.50028 3.45307C7.26888 3.35722 7.02088 3.30789 6.77042 3.30789C6.51995 3.30789 6.27195 3.35722 6.04055 3.45307C5.80915 3.54892 5.5989 3.6894 5.4218 3.86651L3.36456 5.92375C3.00742 6.28171 2.80685 6.76671 2.80685 7.27235C2.80684 7.778 3.0074 8.263 3.36453 8.62096L3.6985 8.95493C3.11758 9.95253 2.6731 11.0235 2.37694 12.1393H1.90724C1.40158 12.1399 0.916802 12.341 0.55925 12.6986C0.201697 13.0561 0.000572543 13.5409 0 14.0465L0 16.9559C0.000572544 17.4615 0.201697 17.9463 0.55925 18.3039C0.916802 18.6614 1.40158 18.8625 1.90724 18.8631H2.37695C2.6731 19.9789 3.11759 21.0499 3.69851 22.0475L3.36457 22.3814C3.00744 22.7394 2.80688 23.2244 2.80688 23.7301C2.80687 24.2357 3.00742 24.7207 3.36454 25.0787L5.4218 27.1359C5.59891 27.313 5.80916 27.4535 6.04055 27.5494C6.27195 27.6452 6.51996 27.6945 6.77042 27.6945C7.02088 27.6945 7.26889 27.6452 7.50029 27.5493C7.73168 27.4535 7.94193 27.313 8.11903 27.1359L8.45294 26.802C9.45054 27.3829 10.5216 27.8274 11.6374 28.1236V28.5933C11.6379 29.0989 11.8391 29.5837 12.1966 29.9412C12.5542 30.2988 13.0389 30.4999 13.5446 30.5005H16.4539C16.9596 30.4999 17.4444 30.2988 17.8019 29.9412C18.1595 29.5837 18.3606 29.0989 18.3612 28.5933V28.1235C19.477 27.8274 20.548 27.3829 21.5456 26.802L21.8795 27.1359C22.0566 27.313 22.2669 27.4535 22.4983 27.5493C22.7297 27.6452 22.9777 27.6945 23.2281 27.6945C23.4786 27.6945 23.7266 27.6452 23.958 27.5493C24.1894 27.4535 24.3996 27.313 24.5767 27.1359L26.634 25.0787C26.9911 24.7207 27.1917 24.2357 27.1917 23.7301C27.1917 23.2244 26.9911 22.7394 26.634 22.3815L26.3 22.0475C26.881 21.0499 27.3254 19.9789 27.6216 18.8631H28.0913C28.597 18.8625 29.0817 18.6614 29.4393 18.3039C29.7968 17.9463 29.998 17.4615 29.9985 16.9559V14.0465C29.998 13.5409 29.7968 13.0561 29.4393 12.6986C29.0817 12.341 28.597 12.1399 28.0913 12.1393ZM29.0611 16.9559C29.0611 17.2131 28.9589 17.4598 28.777 17.6416C28.5952 17.8235 28.3485 17.9257 28.0913 17.9257H26.8785C26.5692 19.4459 25.9692 20.8921 25.1115 22.1848L25.9711 23.0443C26.153 23.2262 26.2551 23.4729 26.2551 23.7301C26.2551 23.9873 26.153 24.2339 25.9711 24.4158L23.9139 26.473C23.8238 26.5631 23.7169 26.6345 23.5992 26.6832C23.4816 26.732 23.3555 26.7571 23.2281 26.7571C23.1008 26.7571 22.9747 26.732 22.857 26.6832C22.7393 26.6345 22.6324 26.5631 22.5424 26.473L21.6829 25.6135C20.3901 26.4712 18.9439 27.0712 17.4237 27.3805V28.5933C17.4237 28.8505 17.3215 29.0971 17.1397 29.279C16.9578 29.4608 16.7111 29.563 16.4539 29.563H13.5446C13.2874 29.563 13.0407 29.4609 12.8589 29.279C12.677 29.0971 12.5748 28.8505 12.5748 28.5933V27.3805C11.0546 27.0712 9.60841 26.4712 8.31567 25.6135L7.45615 26.473C7.3661 26.5631 7.25919 26.6345 7.14153 26.6832C7.02388 26.732 6.89777 26.7571 6.77042 26.7571C6.64306 26.7571 6.51695 26.732 6.3993 26.6832C6.28164 26.6345 6.17473 26.5631 6.08468 26.473L4.02744 24.4158C3.84557 24.2339 3.7434 23.9873 3.7434 23.7301C3.7434 23.4729 3.84557 23.2262 4.02744 23.0443L4.88698 22.1848C4.0293 20.8921 3.42932 19.4459 3.11998 17.9257H1.90724C1.65004 17.9257 1.40337 17.8235 1.2215 17.6416C1.03963 17.4598 0.937458 17.2131 0.937454 16.9559V14.0465C0.937454 13.9192 0.962537 13.7931 1.01127 13.6754C1.06001 13.5578 1.13144 13.4509 1.2215 13.3608C1.31155 13.2708 1.41846 13.1993 1.53612 13.1506C1.65378 13.1018 1.77988 13.0768 1.90724 13.0768H3.11999C3.42934 11.5566 4.02932 10.1104 4.88699 8.81764L4.02745 7.9581C3.84558 7.77623 3.74341 7.52956 3.74341 7.27236C3.74341 7.01516 3.84558 6.7685 4.02745 6.58662L6.08469 4.52938C6.17475 4.43933 6.28165 4.36789 6.39931 4.31916C6.51697 4.27042 6.64307 4.24534 6.77043 4.24534C6.89778 4.24534 7.02389 4.27042 7.14154 4.31916C7.2592 4.36789 7.36611 4.43933 7.45616 4.52938L8.31571 5.38892C9.60844 4.53126 11.0546 3.93128 12.5748 3.62194V2.40919C12.5748 2.28184 12.5999 2.15573 12.6486 2.03807C12.6974 1.92041 12.7688 1.8135 12.8589 1.72345C12.9489 1.6334 13.0558 1.56196 13.1735 1.51323C13.2911 1.46449 13.4172 1.43941 13.5446 1.43941H16.4539C16.5813 1.43941 16.7074 1.46449 16.8251 1.51322C16.9427 1.56196 17.0496 1.63339 17.1397 1.72345C17.2297 1.8135 17.3012 1.92041 17.3499 2.03807C17.3986 2.15573 17.4237 2.28184 17.4237 2.40919V3.62195C18.9439 3.93129 20.3901 4.53127 21.6828 5.38893L22.5424 4.52939C22.7243 4.34752 22.9709 4.24535 23.2281 4.24535C23.4853 4.24535 23.732 4.34752 23.9139 4.52939L25.9711 6.58663C26.153 6.76851 26.2551 7.01517 26.2551 7.27237C26.2551 7.52957 26.153 7.77624 25.9711 7.95811L25.1116 8.81765C25.9692 10.1104 26.5692 11.5566 26.8786 13.0768H28.0913C28.3485 13.0768 28.5952 13.179 28.777 13.3608C28.9589 13.5427 29.0611 13.7893 29.0611 14.0465V16.9559Z" fill="#184065"/>
</svg>
