<svg width="30" height="38" viewBox="0 0 30 38" fill="none" xmlns="http://www.w3.org/2000/svg">
<path d="M16.6161 28.1027H12.7949C12.4703 28.1027 12.2071 27.8406 12.2071 27.5172V25.9181C10.7369 25.6097 9.32248 25.0274 8.06716 24.2136L6.91766 25.3469C6.68766 25.5736 6.31693 25.5726 6.08818 25.3446L3.3565 22.6214C3.12738 22.393 3.12716 22.023 3.35599 21.7944L4.493 20.658C3.67704 19.4092 3.09314 18.002 2.78377 16.5396H1.18455C0.859898 16.5396 0.59668 16.2775 0.59668 15.9541V12.1486C0.59668 11.8252 0.859898 11.5631 1.18455 11.5631H2.78377C3.09314 10.1015 3.67784 8.69405 4.49535 7.44363L3.35848 6.30203C3.13039 6.07304 3.13127 5.70346 3.36047 5.47549L6.09553 2.75502C6.32479 2.5269 6.69603 2.52661 6.92567 2.75428L8.06834 3.88703C9.32233 3.07461 10.7362 2.49294 12.2071 2.18462V0.585473C12.2071 0.262145 12.4703 0 12.7949 0H16.6161C16.9407 0 17.204 0.262145 17.204 0.585473V2.18469C18.6693 2.4925 20.0813 3.07461 21.3365 3.88849L22.4795 2.7567C22.7093 2.52917 23.0809 2.52976 23.3099 2.75809L26.0415 5.4812C26.2707 5.70961 26.2709 6.07955 26.0421 6.30825L24.9051 7.44458C25.7211 8.69339 26.305 10.1005 26.6143 11.563H28.2265C28.5511 11.563 28.8144 11.8252 28.8144 12.1485V15.9541C28.8144 16.2774 28.5511 16.5395 28.2265 16.5395H26.6143C26.3049 18.0016 25.7205 19.409 24.9036 20.6589L26.0411 21.8005C26.2692 22.0294 26.2684 22.3989 26.0394 22.627L23.306 25.3475C23.0766 25.5759 22.7048 25.5759 22.4752 25.3479L21.3359 24.2159C20.0817 25.0287 18.6702 25.6102 17.204 25.918V27.5172C17.204 27.8406 16.9407 28.1027 16.6161 28.1027ZM13.3828 26.9318H16.0282V25.433C16.0282 25.147 16.2357 24.9029 16.519 24.8556C18.1495 24.5835 19.7217 23.9359 21.0659 22.9826C21.2997 22.817 21.6191 22.8434 21.8221 23.045L22.89 24.106L24.7939 22.2111L23.7275 21.1409C23.526 20.9386 23.5 20.6211 23.666 20.3889C24.6234 19.0499 25.274 17.4829 25.5474 15.8574C25.5949 15.5753 25.84 15.3687 26.1272 15.3687H27.6386V12.734H26.1273C25.8401 12.734 25.595 12.5274 25.5475 12.2453C25.2738 10.6186 24.6236 9.05163 23.6669 7.71375C23.5006 7.48117 23.5271 7.16312 23.7294 6.96083L24.7952 5.89557L22.8925 3.99885L21.8214 5.05958C21.6182 5.26077 21.2992 5.28675 21.0659 5.12128C19.7202 4.16696 18.1479 3.51884 16.5189 3.24703C16.2357 3.19976 16.0282 2.95561 16.0282 2.66961V1.17095H13.3828V2.66968C13.3828 2.95569 13.1753 3.19983 12.8921 3.24711C11.256 3.52008 9.68145 4.16776 8.33868 5.12003C8.10523 5.2855 7.78594 5.25938 7.58298 5.05805L6.51166 3.99607L4.60579 5.89176L5.67138 6.96186C5.87287 7.16421 5.89881 7.48161 5.73281 7.71375C4.77466 9.05368 4.12382 10.6207 3.85046 12.2453C3.80299 12.5274 3.55785 12.734 3.27067 12.734H1.77242V15.3687H3.27075C3.55792 15.3687 3.80306 15.5753 3.85053 15.8574C4.12418 17.4841 4.77451 19.0511 5.73112 20.3889C5.89741 20.6215 5.87103 20.9396 5.66866 21.1418L4.60278 22.2071L6.5063 24.1047L7.58401 23.0422C7.78726 22.8419 8.10574 22.8162 8.33861 22.9813C9.68299 23.9348 11.2575 24.5829 12.892 24.8556C13.1752 24.9029 13.3827 25.1469 13.3827 25.433V26.9318H13.3828Z" fill="#010231"/>
<path d="M14.6989 23.419C9.51239 23.419 5.29297 19.2166 5.29297 14.0513C5.29297 8.88588 9.51239 4.68359 14.6989 4.68359C19.8853 4.68359 24.1048 8.88588 24.1048 14.0513C24.1048 19.2166 19.8853 23.419 14.6989 23.419ZM14.6989 5.85456C10.1607 5.85456 6.46871 9.5316 6.46871 14.0513C6.46871 18.571 10.1607 22.248 14.6989 22.248C19.237 22.248 22.929 18.571 22.929 14.0513C22.929 9.5316 19.237 5.85456 14.6989 5.85456Z" fill="#010231"/>
<path d="M18.821 22.3973C18.4963 22.3973 18.2331 22.1351 18.2331 21.8118V19.3235C18.2331 18.3867 17.8656 17.5044 17.1983 16.8392C16.5318 16.176 15.6453 15.8106 14.7026 15.8106C12.7595 15.8106 11.1787 17.3865 11.1787 19.3235V21.8118C11.1787 22.1351 10.9154 22.3973 10.5908 22.3973C10.2661 22.3973 10.0029 22.1351 10.0029 21.8118V19.3235C10.0029 16.7408 12.1112 14.6396 14.7026 14.6396C15.9591 14.6396 17.1408 15.1267 18.0297 16.0111C18.9192 16.8979 19.4088 18.0742 19.4088 19.3235V21.8118C19.4088 22.1351 19.1456 22.3973 18.821 22.3973Z" fill="#010231"/>
<path d="M14.6991 15.8089C13.0784 15.8089 11.7598 14.4957 11.7598 12.8815C11.7598 11.2673 13.0784 9.9541 14.6991 9.9541C16.3199 9.9541 17.6384 11.2673 17.6384 12.8815C17.6384 14.4957 16.3199 15.8089 14.6991 15.8089ZM14.6991 11.1251C13.7266 11.1251 12.9355 11.913 12.9355 12.8815C12.9355 13.85 13.7266 14.638 14.6991 14.638C15.6716 14.638 16.4627 13.85 16.4627 12.8815C16.4627 11.913 15.6716 11.1251 14.6991 11.1251Z" fill="#010231"/>
<path d="M17.3107 37.5015C17.2171 37.5015 17.1232 37.4793 17.0371 37.4343L14.9928 36.3638L12.9484 37.4343C12.7503 37.538 12.5103 37.5207 12.3293 37.3897C12.1482 37.2588 12.0576 37.0367 12.0954 36.8171L12.4858 34.5499L10.8318 32.9442C10.6716 32.7887 10.6139 32.5559 10.6831 32.344C10.7522 32.1321 10.9362 31.9776 11.1577 31.9456L13.4434 31.6148L14.4656 29.552C14.5646 29.3521 14.769 29.2256 14.9928 29.2256C15.2165 29.2256 15.4209 29.3521 15.5199 29.552L16.5421 31.6148L18.8278 31.9456C19.0493 31.9776 19.2332 32.1321 19.3024 32.344C19.3715 32.5559 19.3138 32.7887 19.1536 32.9442L17.4997 34.5499L17.8901 36.8171C17.9279 37.0368 17.8372 37.2588 17.6562 37.3897C17.5539 37.4637 17.4326 37.5015 17.3107 37.5015ZM14.9928 35.1169C15.0868 35.1169 15.1807 35.1394 15.2663 35.1842L16.53 35.8458L16.2887 34.4445C16.256 34.2545 16.3192 34.0608 16.4578 33.9263L17.4801 32.9337L16.0672 32.7293C15.8758 32.7016 15.7103 32.5818 15.6246 32.409L14.9928 31.134L14.361 32.409C14.2754 32.5818 14.1099 32.7016 13.9184 32.7293L12.5056 32.9337L13.5279 33.9263C13.6665 34.0608 13.7297 34.2545 13.697 34.4445L13.4557 35.8458L14.7193 35.1842C14.8049 35.1394 14.8988 35.1169 14.9928 35.1169Z" fill="#010231"/>
<path d="M5.6561 33.9867C5.56255 33.9867 5.46864 33.9645 5.38259 33.9195L3.72024 33.0491L2.05783 33.9195C1.85979 34.0232 1.61979 34.0059 1.43873 33.8749C1.25774 33.7439 1.16706 33.5219 1.2049 33.3023L1.52243 31.4588L0.17753 30.1531C0.0172629 29.9976 -0.0403483 29.7649 0.0287997 29.5529C0.0979477 29.341 0.28195 29.1865 0.503356 29.1545L2.36198 28.8856L3.19315 27.2082C3.2922 27.0084 3.49649 26.8818 3.72032 26.8818C3.94415 26.8818 4.14843 27.0084 4.24749 27.2082L5.07866 28.8856L6.93728 29.1545C7.15869 29.1866 7.34269 29.3411 7.41184 29.5529C7.48099 29.7649 7.4233 29.9976 7.26311 30.1531L5.91821 31.4588L6.23573 33.3023C6.27358 33.5219 6.1829 33.7439 6.00191 33.8749C5.89933 33.949 5.778 33.9867 5.6561 33.9867ZM3.72024 31.8021C3.81423 31.8021 3.90814 31.8246 3.99382 31.8694L4.87548 32.331L4.70706 31.3534C4.67436 31.1634 4.73755 30.9697 4.87614 30.8352L5.58937 30.1427L4.60366 30.0001C4.41224 29.9724 4.24668 29.8526 4.16107 29.6798L3.72024 28.7903L3.27942 29.6798C3.19381 29.8526 3.02825 29.9724 2.83683 30.0001L1.85112 30.1427L2.56435 30.8352C2.70294 30.9697 2.76613 31.1634 2.73343 31.3534L2.56501 32.331L3.44667 31.8694C3.53235 31.8246 3.62626 31.8021 3.72024 31.8021Z" fill="#010231"/>
<path d="M28.2158 33.9867C28.1222 33.9867 28.0283 33.9645 27.9423 33.9195L26.2799 33.0491L24.6176 33.9195C24.4195 34.0232 24.1795 34.0058 23.9985 33.8749C23.8174 33.744 23.7268 33.522 23.7646 33.3023L24.082 31.4588L22.7371 30.1531C22.5769 29.9975 22.5192 29.7649 22.5884 29.5529C22.6576 29.341 22.8415 29.1865 23.063 29.1545L24.9215 28.8856L25.7527 27.2082C25.8518 27.0084 26.0562 26.8818 26.2799 26.8818C26.5037 26.8818 26.708 27.0084 26.8071 27.2082L27.6383 28.8856L29.4969 29.1545C29.7184 29.1866 29.9023 29.3411 29.9714 29.5529C30.0406 29.7649 29.9829 29.9975 29.8227 30.1531L28.4778 31.4588L28.7953 33.3023C28.8331 33.522 28.7424 33.744 28.5614 33.8749C28.4589 33.949 28.3377 33.9867 28.2158 33.9867ZM26.2799 31.8021C26.3738 31.8021 26.4679 31.8246 26.5535 31.8694L27.4351 32.331L27.2667 31.3534C27.234 31.1634 27.2972 30.9697 27.4358 30.8352L28.149 30.1427L27.1634 30.0001C26.972 29.9724 26.8064 29.8526 26.7208 29.6798L26.2799 28.7901L25.8391 29.6797C25.7535 29.8525 25.5879 29.9723 25.3965 30L24.4109 30.1426L25.1241 30.8351C25.2627 30.9696 25.3259 31.1633 25.2932 31.3533L25.1248 32.3309L26.0064 31.8693C26.092 31.8246 26.186 31.8021 26.2799 31.8021Z" fill="#010231"/>
</svg>
