<svg width="234" height="235" viewBox="0 0 234 235" fill="none" xmlns="http://www.w3.org/2000/svg">
<g filter="url(#filter0_b_980_765)">
<g filter="url(#filter1_b_980_765)">
<circle cx="116.117" cy="118" r="100" fill="#F4786E"/>
<circle cx="116.117" cy="118" r="101" stroke="url(#paint0_linear_980_765)" stroke-width="2"/>
</g>
<path d="M54.7691 93.2992C54.2441 94.5262 53.4498 95.5014 52.3862 96.2246C51.3146 96.9445 50.071 97.3503 48.6554 97.4422C47.2318 97.5306 45.7312 97.2373 44.1536 96.5622C42.8708 96.0133 41.8098 95.3425 40.9706 94.5498C40.1349 93.7492 39.5141 92.8756 39.1085 91.929C38.7062 90.9745 38.5156 89.9879 38.5366 88.9694C38.5577 87.9509 38.7796 86.9476 39.2023 85.9596C39.7546 84.6688 40.4995 83.6772 41.4368 82.9848C42.3741 82.2923 43.5602 81.8996 44.9951 81.8066L44.6791 84.3297C43.8132 84.5248 43.0942 84.8393 42.522 85.2732C41.9419 85.7037 41.5052 86.2616 41.212 86.9468C40.854 87.7834 40.7663 88.6603 40.949 89.5774C41.127 90.4832 41.5719 91.3381 42.2836 92.1422C42.9873 92.943 43.9567 93.6076 45.1917 94.136C46.3152 94.6167 47.3822 94.8659 48.3928 94.8835C49.3988 94.8898 50.2828 94.6742 51.045 94.2368C51.8027 93.788 52.3707 93.1213 52.7492 92.2369C53.0492 91.5357 53.1592 90.8381 53.0791 90.144C52.9991 89.4498 52.7165 88.8104 52.2313 88.2258C51.7417 87.6298 51.0347 87.134 50.1104 86.7385L50.3661 86.1409C51.6489 86.6898 52.698 87.3225 53.5132 88.039C54.3238 88.7441 54.8483 89.5341 55.0867 90.4091C55.325 91.2841 55.2192 92.2474 54.7691 93.2992ZM56.2637 88.9472L52.6203 87.8125L50.0387 86.7078L48.3782 90.3242L46.8842 89.6849L49.3901 83.8285L57.0512 87.1066L56.2637 88.9472Z" fill="#463664"/>
<path d="M60.3629 81.0218L47.2988 70.8419L53.6912 62.6384L55.3729 63.9489L50.4987 70.204L54.4774 73.3044L59.064 67.4183L60.7457 68.7288L56.1591 74.6148L60.1789 77.7471L65.053 71.4919L66.7553 72.8183L60.3629 81.0218Z" fill="#463664"/>
<path d="M59.1395 59.47L57.7987 57.8124L67.9468 49.6043L69.2875 51.2619L64.7391 54.9408L64.814 54.1446L74.2484 65.8087L72.3279 67.3621L62.8936 55.6979L63.6778 55.7993L59.1395 59.47Z" fill="#463664"/>
<path d="M92.775 55.3368C91.7219 55.7373 90.683 55.9191 89.6583 55.8823C88.6306 55.8374 87.7036 55.5456 86.8774 55.0067C86.0593 54.4648 85.4256 53.6395 84.9761 52.5309L87.2362 51.6713C87.4919 52.3437 87.8634 52.8329 88.3507 53.139C88.8461 53.442 89.4052 53.5956 90.0281 53.5998C90.6478 53.5959 91.2858 53.4692 91.9419 53.2196C92.6062 52.967 93.155 52.6423 93.5883 52.2457C94.0216 51.8491 94.3112 51.4283 94.4573 50.9833C94.6114 50.5353 94.6053 50.0925 94.4389 49.6551C94.214 49.0638 93.8515 48.6592 93.3514 48.4414C92.8482 48.2155 92.1763 48.1188 91.3355 48.1511L88.0491 48.1771C86.6341 48.1867 85.4886 48.0151 84.6125 47.6621C83.7334 47.3011 83.089 46.5818 82.6792 45.5045C82.214 44.2813 82.3145 43.1072 82.9808 41.9822C83.644 40.8491 84.8423 39.9529 86.5758 39.2936C88.2202 38.6681 89.6409 38.5636 90.8377 38.98C92.0427 39.3933 92.9596 40.2314 93.5883 41.4944L91.3161 42.3586C90.95 41.7375 90.4379 41.3296 89.7797 41.1349C89.1296 40.9371 88.3266 41.0199 87.3707 41.3835C86.4472 41.7347 85.8033 42.2114 85.4389 42.8136C85.0715 43.4078 85.0033 44.0086 85.2343 44.6161C85.4253 45.1184 85.7399 45.4577 86.1779 45.6342C86.624 45.8076 87.2416 45.8833 88.0307 45.8614L91.7689 45.8165C93.0458 45.7852 94.1281 45.9856 95.0157 46.4176C95.9032 46.8496 96.5442 47.5841 96.9385 48.621C97.2713 49.4958 97.3387 50.3557 97.1408 51.2006C96.9429 52.0454 96.4804 52.8287 95.7534 53.5502C95.0234 54.2637 94.0306 54.8592 92.775 55.3368Z" fill="#463664"/>
<path d="M97.5181 37.9607L97.2241 35.8491L110.151 34.0491L110.445 36.1608L104.651 36.9675L105.126 36.3239L107.195 51.1826L104.748 51.5232L102.68 36.6645L103.299 37.1558L97.5181 37.9607Z" fill="#463664"/>
<path d="M114.973 49.9041L122.39 34.0479L125.427 34.3765L129.112 51.434L126.527 51.1543L125.673 47.0868L119.314 46.3988L117.558 50.1838L114.973 49.9041ZM120.139 44.5789L125.27 45.1341L123.543 37.1671L120.139 44.5789Z" fill="#463664"/>
<path d="M134.263 52.4399L140.189 36.9742L145.725 39.0951C147.529 39.7866 148.737 40.7411 149.347 41.9587C149.968 43.1712 150.012 44.4735 149.479 45.8655C148.952 47.2413 148.052 48.1727 146.779 48.6596C145.515 49.1497 143.98 49.049 142.176 48.3575L138.947 47.1203L136.57 53.3236L134.263 52.4399ZM142.797 55.7096L141.238 46.9541L143.726 47.9075L145.796 56.8585L142.797 55.7096ZM139.551 45.5422L142.574 46.7003C143.675 47.122 144.613 47.18 145.389 46.8741C146.168 46.5601 146.719 45.9823 147.042 45.1406C147.374 44.2746 147.366 43.4829 147.019 42.7653C146.683 42.0427 145.998 41.4829 144.962 41.086L141.733 39.8488L139.551 45.5422Z" fill="#463664"/>
<path d="M156.578 45.9523L157.799 44.2042L168.501 51.6759L167.28 53.424L162.484 50.0751L163.269 49.9261L154.681 62.2268L152.656 60.8128L161.244 48.5121L161.364 49.2937L156.578 45.9523Z" fill="#463664"/>
<path d="M162.496 68.1411L174.823 57.08L181.768 64.8206L180.182 66.2445L174.885 60.3423L171.131 63.711L176.115 69.2648L174.528 70.6887L169.544 65.1349L165.752 68.5383L171.048 74.4405L169.442 75.8817L162.496 68.1411Z" fill="#463664"/>
<path d="M187.107 71.7767L189.465 76.2653C190.247 77.7538 190.623 79.2058 190.593 80.6214C190.575 82.0406 190.178 83.3453 189.403 84.5354C188.628 85.7255 187.497 86.7114 186.008 87.4932C184.527 88.271 183.077 88.6411 181.658 88.6036C180.238 88.5661 178.935 88.154 177.749 87.3675C176.566 86.5887 175.584 85.455 174.802 83.9665L172.445 79.478L187.107 71.7767ZM186.288 74.9972L175.527 80.6492L176.736 82.951C177.284 83.9945 177.987 84.7654 178.846 85.2639C179.709 85.77 180.654 86.0127 181.681 85.9922C182.708 85.9717 183.739 85.6894 184.775 85.1454C185.811 84.6013 186.625 83.9144 187.217 83.0846C187.817 82.2508 188.149 81.337 188.215 80.3433C188.284 79.3572 188.045 78.3425 187.497 77.299L186.288 74.9972Z" fill="#463664"/>
<path d="M182.696 107.702C182.538 106.298 182.716 105.014 183.23 103.848C183.744 102.683 184.599 101.714 185.794 100.943C186.99 100.18 188.536 99.6922 190.431 99.4788C192.36 99.2615 193.988 99.3921 195.315 99.8706C196.652 100.357 197.692 101.112 198.435 102.136C199.179 103.159 199.629 104.373 199.787 105.777C199.946 107.19 199.773 108.478 199.268 109.643C198.763 110.816 197.909 111.784 196.704 112.548C195.509 113.319 193.964 113.811 192.069 114.025C190.157 114.24 188.528 114.105 187.183 113.62C185.847 113.143 184.803 112.388 184.05 111.357C183.307 110.333 182.855 109.115 182.696 107.702ZM184.944 107.449C185.109 108.913 185.777 110.006 186.949 110.729C188.122 111.461 189.741 111.71 191.808 111.477C193.823 111.25 195.33 110.649 196.328 109.673C197.335 108.705 197.756 107.489 197.591 106.024C197.429 104.586 196.749 103.503 195.551 102.774C194.352 102.046 192.741 101.796 190.717 102.024C188.668 102.255 187.152 102.857 186.172 103.831C185.191 104.805 184.782 106.011 184.944 107.449Z" fill="#463664"/>
<path d="M200.429 123.38L200.013 125.815L189.698 124.052C188.245 123.804 187.137 123.988 186.372 124.605C185.606 125.23 185.123 126.128 184.923 127.298C184.723 128.468 184.881 129.471 185.398 130.307C185.914 131.143 186.899 131.684 188.351 131.933L198.666 133.695L198.25 136.13L187.935 134.367C186.568 134.134 185.454 133.68 184.594 133.005C183.741 132.332 183.154 131.475 182.83 130.435C182.505 129.404 182.455 128.23 182.68 126.915C182.903 125.608 183.34 124.517 183.991 123.644C184.641 122.77 185.481 122.153 186.51 121.793C187.545 121.442 188.747 121.384 190.114 121.617L200.429 123.38Z" fill="#463664"/>
<path d="M180.465 139.076L195.485 146.055L192.987 151.431C192.172 153.184 191.137 154.322 189.88 154.847C188.627 155.383 187.325 155.337 185.973 154.709C184.637 154.088 183.77 153.126 183.372 151.823C182.971 150.528 183.177 149.004 183.991 147.251L185.448 144.115L179.424 141.316L180.465 139.076ZM176.614 147.364L185.456 146.412L184.333 148.829L175.261 150.276L176.614 147.364ZM186.981 144.827L185.617 147.763C185.12 148.832 184.998 149.764 185.249 150.559C185.509 151.358 186.047 151.948 186.865 152.328C187.706 152.718 188.496 152.766 189.236 152.469C189.98 152.184 190.586 151.538 191.053 150.532L192.51 147.396L186.981 144.827Z" fill="#463664"/>
<path d="M165.095 163.147C165.879 162.337 166.743 161.732 167.687 161.331C168.636 160.936 169.6 160.808 170.576 160.945C171.547 161.089 172.471 161.568 173.348 162.382L171.665 164.118C171.149 163.618 170.605 163.332 170.034 163.261C169.457 163.197 168.885 163.295 168.319 163.555C167.76 163.821 167.236 164.207 166.747 164.711C166.253 165.221 165.893 165.748 165.669 166.291C165.445 166.834 165.361 167.338 165.417 167.803C165.467 168.274 165.661 168.672 165.997 168.998C166.451 169.438 166.951 169.651 167.496 169.636C168.048 169.627 168.697 169.43 169.445 169.044L172.411 167.628C173.688 167.019 174.798 166.689 175.741 166.637C176.691 166.592 177.579 166.97 178.407 167.772C179.347 168.682 179.754 169.788 179.627 171.09C179.507 172.397 178.801 173.717 177.511 175.049C176.287 176.312 175.044 177.009 173.784 177.14C172.517 177.276 171.331 176.906 170.227 176.028L171.918 174.282C172.513 174.69 173.15 174.842 173.828 174.739C174.501 174.643 175.193 174.227 175.905 173.493C176.592 172.783 176.973 172.079 177.048 171.379C177.129 170.685 176.936 170.112 176.469 169.66C176.084 169.286 175.655 169.112 175.183 169.137C174.706 169.17 174.114 169.363 173.409 169.717L170.042 171.342C168.899 171.912 167.834 172.189 166.847 172.174C165.86 172.159 164.968 171.766 164.171 170.994C163.499 170.343 163.073 169.593 162.894 168.743C162.716 167.894 162.802 166.989 163.155 166.027C163.514 165.072 164.16 164.111 165.095 163.147Z" fill="#463664"/>
<path d="M158.378 170.092L167.378 183.996L158.647 189.647L157.489 187.857L164.146 183.548L161.405 179.314L155.141 183.369L153.982 181.579L160.246 177.524L157.477 173.246L150.82 177.555L149.647 175.744L158.378 170.092Z" fill="#463664"/>
<path d="M145.691 178.108L151.123 193.753L145.523 195.698C143.697 196.332 142.159 196.379 140.908 195.841C139.652 195.314 138.779 194.347 138.29 192.938C137.807 191.547 137.895 190.255 138.554 189.062C139.205 187.873 140.444 186.961 142.27 186.327L145.536 185.193L143.357 178.918L145.691 178.108ZM137.057 181.105L143.891 186.796L141.374 187.671L134.024 182.158L137.057 181.105ZM146.091 186.79L143.033 187.851C141.919 188.238 141.164 188.798 140.768 189.532C140.374 190.275 140.325 191.071 140.621 191.923C140.925 192.799 141.441 193.4 142.168 193.725C142.891 194.061 143.776 194.047 144.824 193.684L148.09 192.549L146.091 186.79Z" fill="#463664"/>
<path d="M124.517 186.511L120.951 200.713L118.345 200.908L122.906 183.959L125.485 183.766L132.45 199.853L129.831 200.049L124.232 186.532L124.517 186.511Z" fill="#463664"/>
<path d="M111.414 184.021L109.632 200.487L107.176 200.221L108.958 183.756L111.414 184.021Z" fill="#463664"/>
<path d="M99.0592 181.499C100.455 181.943 101.553 182.665 102.353 183.666C103.143 184.672 103.617 185.882 103.776 187.297C103.932 188.72 103.744 190.27 103.21 191.947C102.648 193.714 101.883 195.103 100.915 196.114C99.9454 197.133 98.8511 197.785 97.6326 198.07C96.4031 198.361 95.1401 198.3 93.8435 197.888C92.101 197.333 90.8515 196.458 90.0952 195.262C89.3362 194.075 89.0068 192.738 89.1071 191.251L91.7756 191.568C91.7812 192.579 92.0193 193.46 92.49 194.21C92.9581 194.969 93.634 195.488 94.5177 195.77C95.294 196.017 96.0752 196.02 96.8612 195.779C97.6473 195.538 98.3764 195.033 99.0484 194.265C99.7177 193.504 100.263 192.464 100.683 191.142C101.072 189.92 101.253 188.795 101.225 187.768C101.195 186.749 100.947 185.883 100.483 185.171C100.018 184.46 99.3147 183.954 98.3732 183.654C97.2253 183.289 96.2238 183.307 95.3686 183.708C94.5108 184.117 93.9242 184.817 93.6088 185.808L91.0693 185C91.4372 183.843 92.0115 182.939 92.7919 182.287C93.5615 181.641 94.4826 181.247 95.5551 181.107C96.6276 180.966 97.7957 181.097 99.0592 181.499Z" fill="#463664"/>
<path d="M86.3861 177.225L77.5285 191.219L68.7408 185.657L69.881 183.856L76.5816 188.097L79.2792 183.835L72.9741 179.844L74.1143 178.043L80.4195 182.033L83.1449 177.727L76.4443 173.486L77.5984 171.663L86.3861 177.225Z" fill="#463664"/>
<path d="M55.8122 174.864L54.0947 172.626L59.4009 158.443L59.5196 158.598L49.3302 166.418L47.8264 164.458L60.9654 154.375L62.5641 156.458L57.0416 171.299L56.8042 170.989L67.4473 162.821L68.9511 164.781L55.8122 174.864Z" fill="#463664"/>
<path d="M55.686 143.656C56.1979 144.973 56.3543 146.26 56.1553 147.518C55.9563 148.777 55.3777 149.931 54.4195 150.983C53.4582 152.026 52.0889 152.893 50.3118 153.584C48.5024 154.287 46.8949 154.577 45.4895 154.454C44.0728 154.326 42.8743 153.862 41.8939 153.062C40.9135 152.262 40.1674 151.204 39.6556 149.887C39.1406 148.563 38.9786 147.273 39.1695 146.018C39.3572 144.754 39.9358 143.6 40.9053 142.553C41.8635 141.502 43.2312 140.631 45.0083 139.94C46.8016 139.243 48.4106 138.957 49.8353 139.082C51.2488 139.202 52.4514 139.664 53.443 140.469C54.4234 141.269 55.1711 142.331 55.686 143.656ZM53.5777 144.476C53.0439 143.102 52.1183 142.216 50.8008 141.817C49.4803 141.41 47.8506 141.583 45.9119 142.337C44.0217 143.071 42.7191 144.038 42.0041 145.237C41.2778 146.43 41.1816 147.713 41.7154 149.087C42.2398 150.436 43.1744 151.309 44.5192 151.707C45.8641 152.105 47.4856 151.935 49.3839 151.197C51.3064 150.449 52.6171 149.48 53.316 148.287C54.0149 147.095 54.1021 145.825 53.5777 144.476Z" fill="#463664"/>
<path d="M33.9053 134.107L33.8136 131.34L48.0455 126.693L48.0679 127.368L35.0134 123.587L34.9579 121.91L47.5894 117.251L47.6101 117.875L33.23 113.734L33.1379 110.954L49.8824 116.187L49.9686 118.785L39.4848 122.71L39.4732 122.359L50.1964 125.659L50.2821 128.244L33.9053 134.107Z" fill="#463664"/>
</g>
<defs>
<filter id="filter0_b_980_765" x="-143.883" y="-142" width="520" height="520" filterUnits="userSpaceOnUse" color-interpolation-filters="sRGB">
<feFlood flood-opacity="0" result="BackgroundImageFix"/>
<feGaussianBlur in="BackgroundImageFix" stdDeviation="79"/>
<feComposite in2="SourceAlpha" operator="in" result="effect1_backgroundBlur_980_765"/>
<feBlend mode="normal" in="SourceGraphic" in2="effect1_backgroundBlur_980_765" result="shape"/>
</filter>
<filter id="filter1_b_980_765" x="-4.88281" y="-2.99963" width="242" height="242" filterUnits="userSpaceOnUse" color-interpolation-filters="sRGB">
<feFlood flood-opacity="0" result="BackgroundImageFix"/>
<feGaussianBlur in="BackgroundImageFix" stdDeviation="9.5"/>
<feComposite in2="SourceAlpha" operator="in" result="effect1_backgroundBlur_980_765"/>
<feBlend mode="normal" in="SourceGraphic" in2="effect1_backgroundBlur_980_765" result="shape"/>
</filter>
<linearGradient id="paint0_linear_980_765" x1="116.117" y1="18.0004" x2="116.117" y2="218" gradientUnits="userSpaceOnUse">
<stop stop-color="white" stop-opacity="0"/>
<stop offset="1" stop-color="white"/>
</linearGradient>
</defs>
</svg>
