<svg width="445" height="412" viewBox="0 0 445 412" fill="none" xmlns="http://www.w3.org/2000/svg">
<path d="M439.592 198.565C439.752 199.699 439.911 200.832 440.068 201.966C444.331 232.799 447.401 264.234 442.46 294.965C437.518 325.696 423.739 356.01 399.463 375.339C362.959 404.404 307.05 407.287 262.552 407.771C215.299 408.284 168.045 408.797 120.792 409.31C101.506 409.519 82.0351 409.711 63.1679 405.688C42.0629 401.189 16.5609 389.532 6.85161 368.93C-2.99929 348.027 -1.40349 322.753 6.41343 301.49C15.5989 276.504 32.7042 255.349 50.317 235.446C67.9298 215.544 86.53 196.135 99.6591 172.996C118.436 139.905 125.183 100.62 146.446 69.0861C160.156 48.7514 179.439 32.5445 200.887 20.7695C243.166 -2.44238 296.544 -8.03076 339.73 13.4286C372.859 29.8906 397.423 60.5755 412.748 94.3783C427.599 127.137 434.546 162.896 439.592 198.565Z" fill="#FADDD4"/>
<path d="M54.1302 52.4623C48.8741 60.5346 44.1428 69.0104 41.8632 78.3404C37.6536 95.5706 44.6299 111.226 58.6292 121.462C68.8357 128.925 83.422 129.755 94.401 123.498C100.473 120.038 105.281 114.761 109.962 109.556C127.544 90.0068 145.96 67.2343 144.426 40.9271C142.762 12.4013 117.397 0.0312343 92.2916 12.6061C77.2967 20.1171 66.5939 34.0163 57.1526 47.9269C56.1346 49.4274 55.1227 50.9372 54.1302 52.4623Z" fill="#FADDD4"/>
<path d="M201.776 341.593H129.709C129.063 341.593 128.54 341.066 128.54 340.418V330.999C128.54 330.349 129.064 329.824 129.709 329.824H201.776C202.422 329.824 202.944 330.35 202.944 330.999V340.418C202.944 341.067 202.422 341.593 201.776 341.593Z" fill="#9DD1C9" stroke="black" stroke-width="0.5" stroke-miterlimit="10"/>
<path d="M203.088 335.509H128.397V380.102H203.088V335.509Z" fill="#B4ADF3" stroke="black" stroke-width="0.5" stroke-miterlimit="10"/>
<path d="M144.217 342.152H186.546" stroke="#222221" stroke-width="0.5" stroke-miterlimit="10"/>
<path d="M144.217 348.425H186.546" stroke="#222221" stroke-width="0.5" stroke-miterlimit="10"/>
<path d="M144.217 354.697H186.546" stroke="#222221" stroke-width="0.5" stroke-miterlimit="10"/>
<path d="M144.217 360.97H186.546" stroke="#222221" stroke-width="0.5" stroke-miterlimit="10"/>
<path d="M135.398 339.493L139.202 342.187L135.398 344.968" stroke="#222221" stroke-width="0.5" stroke-miterlimit="10"/>
<path d="M187.511 363.229H115.445C114.799 363.229 114.276 362.703 114.276 362.055V352.636C114.276 351.987 114.8 351.462 115.445 351.462H187.511C188.157 351.462 188.68 351.988 188.68 352.636V362.055C188.681 362.703 188.157 363.229 187.511 363.229Z" fill="#9DD1C9" stroke="black" stroke-width="0.5" stroke-miterlimit="10"/>
<path d="M188.824 357.145H114.132V401.739H188.824V357.145Z" fill="black"/>
<path d="M129.953 363.789H172.282" stroke="#9DD1C9" stroke-width="0.75" stroke-miterlimit="10"/>
<path d="M129.953 370.061H172.282" stroke="#9DD1C9" stroke-width="0.75" stroke-miterlimit="10"/>
<path d="M129.953 376.334H172.282" stroke="#9DD1C9" stroke-width="0.75" stroke-miterlimit="10"/>
<path d="M129.953 382.606H172.282" stroke="#9DD1C9" stroke-width="0.75" stroke-miterlimit="10"/>
<path d="M121.135 361.13L124.938 363.823L121.135 366.603" stroke="#9DD1C9" stroke-width="0.75" stroke-miterlimit="10"/>
<path d="M366.735 344.308L357.398 351.086L366.216 356.821" stroke="#F65E59" stroke-miterlimit="10"/>
<path d="M441.426 347.958C441.426 348.533 440.962 349 440.389 349C439.816 349 439.351 348.533 439.351 347.958C439.351 347.382 439.816 346.915 440.389 346.915C440.962 346.915 441.426 347.382 441.426 347.958Z" stroke="#F65E59" stroke-miterlimit="10"/>
<path d="M440.389 354.214C440.962 354.214 441.426 353.747 441.426 353.171C441.426 352.595 440.962 352.128 440.389 352.128C439.816 352.128 439.351 352.595 439.351 353.171C439.351 353.747 439.816 354.214 440.389 354.214Z" stroke="#F65E59" stroke-miterlimit="10"/>
<path d="M412.898 350.564C412.898 354.308 410.808 357.342 408.229 357.342C405.651 357.342 403.561 354.307 403.561 350.564C403.561 346.822 405.651 343.787 408.229 343.787C410.808 343.787 412.898 346.822 412.898 350.564Z" stroke="#F65E59" stroke-miterlimit="10"/>
<path d="M377.109 350.564H385.407" stroke="#F65E59" stroke-miterlimit="10"/>
<path d="M390.076 350.564H398.374" stroke="#F65E59" stroke-miterlimit="10"/>
<path d="M420.419 348.255H431.83" stroke="#F65E59" stroke-miterlimit="10"/>
<path d="M420.419 352.875H431.83" stroke="#F65E59" stroke-miterlimit="10"/>
<path d="M423.084 39.5422H7.7229V286.414H423.084V39.5422Z" fill="white" stroke="#222221" stroke-width="0.5" stroke-miterlimit="10"/>
<path d="M171.228 238.002C171.228 239.896 169.701 241.431 167.816 241.431C165.932 241.431 164.405 239.896 164.405 238.002C164.405 236.108 165.932 234.572 167.816 234.572C169.701 234.574 171.228 236.108 171.228 238.002Z" stroke="black" stroke-width="0.5" stroke-miterlimit="10"/>
<path d="M230.578 233.645H180.438V239.953H230.578V233.645Z" fill="#FADDD4"/>
<path d="M171.228 263.722C171.228 265.616 169.701 267.151 167.816 267.151C165.932 267.151 164.405 265.616 164.405 263.722C164.405 261.828 165.932 260.293 167.816 260.293C169.701 260.294 171.228 261.828 171.228 263.722Z" stroke="black" stroke-width="0.5" stroke-miterlimit="10"/>
<path d="M230.578 260.568H180.438V266.877H230.578V260.568Z" fill="#FADDD4"/>
<path d="M129.398 131.126H28.4774V208.313H129.398V131.126Z" fill="#FADDD4"/>
<mask id="mask0_741_1018" style="mask-type:luminance" maskUnits="userSpaceOnUse" x="28" y="131" width="102" height="78">
<path d="M129.398 131.126H28.4774V208.313H129.398V131.126Z" fill="white"/>
</mask>
<g mask="url(#mask0_741_1018)">
<path d="M-1.74475 201.793C8.07659 192.224 18.1191 182.496 30.4136 176.472C42.7081 170.447 57.8569 168.64 69.8926 175.17C82.989 182.278 89.574 197.283 94.0026 211.565C95.5577 216.58 90.1181 219.317 86.0614 222.628C82.0047 225.938 77.1246 228.056 72.2159 229.858C61.3144 233.861 49.7261 236.526 38.151 235.686C26.5759 234.846 14.9754 230.206 7.29296 221.462" fill="#F65E59"/>
<path d="M-1.74475 201.793C8.07659 192.224 18.1191 182.496 30.4136 176.472C42.7081 170.447 57.8569 168.64 69.8926 175.17C82.989 182.278 89.574 197.283 94.0026 211.565C95.5577 216.58 90.1181 219.317 86.0614 222.628C82.0047 225.938 77.1246 228.056 72.2159 229.858C61.3144 233.861 49.7261 236.526 38.151 235.686C26.5759 234.846 14.9754 230.206 7.29296 221.462" stroke="black" stroke-width="0.5" stroke-miterlimit="10"/>
</g>
<mask id="mask1_741_1018" style="mask-type:luminance" maskUnits="userSpaceOnUse" x="28" y="131" width="102" height="78">
<path d="M129.398 131.126H28.4774V208.313H129.398V131.126Z" fill="white"/>
</mask>
<g mask="url(#mask1_741_1018)">
<path d="M145.282 212.853C143.416 208.773 141.55 204.694 139.684 200.614C134.62 189.539 128.514 177.45 117.168 173.146C110.389 170.575 102.703 171.324 95.9081 173.853C89.1143 176.382 83.0674 180.568 77.2539 184.914C61.2593 196.87 46.406 210.369 32.9651 225.165" fill="white"/>
<path d="M145.282 212.853C143.416 208.773 141.55 204.694 139.684 200.614C134.62 189.539 128.514 177.45 117.168 173.146C110.389 170.575 102.703 171.324 95.9081 173.853C89.1143 176.382 83.0674 180.568 77.2539 184.914C61.2593 196.87 46.406 210.369 32.9651 225.165" stroke="#222221" stroke-width="0.5" stroke-miterlimit="10"/>
</g>
<path d="M98.9704 155.797C98.9704 159.401 96.0641 162.322 92.4792 162.322C88.8943 162.322 85.988 159.401 85.988 155.797C85.988 152.194 88.8943 149.273 92.4792 149.273C96.0641 149.273 98.9704 152.194 98.9704 155.797Z" fill="#F65E59" stroke="black" stroke-width="0.5" stroke-miterlimit="10"/>
<path d="M129.398 131.126H28.4774V208.313H129.398V131.126Z" stroke="#222221" stroke-width="0.5" stroke-miterlimit="10"/>
<path d="M138.848 123.899H19.027V215.543H138.848V123.899Z" stroke="#222221" stroke-width="0.5" stroke-miterlimit="10" stroke-dasharray="4 4"/>
<path d="M410.046 52.321H19.027V104.362H410.046V52.321Z" fill="white" stroke="#222221" stroke-width="0.5" stroke-miterlimit="10" stroke-dasharray="4 4"/>
<path d="M405.036 56.4436H24.0354V100.238H405.036V56.4436Z" fill="#FADDD4"/>
<path d="M63.8176 254.143C65.6418 242.845 58.0087 232.2 46.7687 230.367C35.5286 228.533 24.938 236.205 23.1138 247.503C21.2896 258.801 28.9227 269.446 40.1627 271.28C51.4028 273.113 61.9934 265.441 63.8176 254.143Z" fill="#FADDD4"/>
<path d="M81.6683 238.002C81.6683 239.896 80.1408 241.431 78.2567 241.431C76.3725 241.431 74.845 239.896 74.845 238.002C74.845 236.108 76.3725 234.572 78.2567 234.572C80.1408 234.572 81.6683 236.108 81.6683 238.002Z" stroke="black" stroke-width="0.5" stroke-miterlimit="10"/>
<path d="M141.018 233.645H90.8783V239.953H141.018V233.645Z" fill="#FADDD4"/>
<path d="M81.6683 263.722C81.6683 265.616 80.1408 267.151 78.2567 267.151C76.3725 267.151 74.845 265.616 74.845 263.722C74.845 261.828 76.3725 260.293 78.2567 260.293C80.1408 260.293 81.6683 261.828 81.6683 263.722Z" stroke="black" stroke-width="0.5" stroke-miterlimit="10"/>
<path d="M141.018 260.568H90.8783V266.877H141.018V260.568Z" fill="#FADDD4"/>
<path opacity="0.55" d="M401.747 129.994H240.693V141.508H401.747V129.994Z" fill="#FADDD4"/>
<path opacity="0.55" d="M401.747 152.673H240.693V164.187H401.747V152.673Z" fill="#FADDD4"/>
<path opacity="0.55" d="M401.747 175.353H240.693V186.866H401.747V175.353Z" fill="#FADDD4"/>
<path opacity="0.55" d="M401.747 198.031H240.693V209.545H401.747V198.031Z" fill="#FADDD4"/>
<path d="M59.2118 254.578C61.2674 245.828 55.8768 237.06 47.1715 234.994C38.4662 232.927 29.7428 238.346 27.6873 247.096C25.6317 255.846 31.0224 264.614 39.7276 266.68C48.4329 268.746 57.1563 263.328 59.2118 254.578Z" stroke="#222221" stroke-width="0.5" stroke-miterlimit="10" stroke-dasharray="4 4"/>
<path d="M335.973 313.462V394.525" stroke="black" stroke-width="4" stroke-miterlimit="10"/>
<path d="M369.989 393.723H303.297" stroke="black" stroke-width="5" stroke-miterlimit="10"/>
<path d="M392.389 271.537C387.835 285.263 380.897 297.787 369.706 307.126C364.871 311.161 360.79 313.227 354.835 314.84C347.639 316.789 340.16 317.248 332.743 317.495C321.924 317.855 311.092 317.827 300.275 317.41C293.573 317.152 285.931 316.244 282.069 310.732C275.35 301.14 282.167 289.292 291.634 285.839C300.742 282.516 310.422 280.946 319.034 276.279C337.07 266.502 341.809 244.429 346.535 226.139C349.973 212.832 352.17 198.203 361.708 187.569C373.705 174.193 392.655 176.821 400.619 192.935C406.339 204.508 402.182 218.771 400.95 230.932C399.566 244.6 396.722 258.478 392.389 271.537Z" fill="#7696EA" stroke="black" stroke-width="0.5" stroke-miterlimit="10"/>
<path d="M224.195 346.037C220.814 347.038 215.238 345.82 213.424 343.537C211.341 340.913 213.873 336.563 215.038 334.031C219.018 325.379 222.211 316.394 225.98 307.651C227.856 303.3 229.877 299.005 232.213 294.882C234.265 291.26 236.274 288.529 240.803 287.967C243.513 287.632 246.255 288.72 248.401 290.416C251.244 292.664 253.207 296.008 253.787 299.597C254.882 306.356 251.24 312.912 247.424 318.586C243.944 323.76 240.202 328.756 236.215 333.547C234.265 335.892 232.256 338.188 230.193 340.432C228.564 342.204 226.551 345.34 224.195 346.037Z" fill="white" stroke="#222221" stroke-width="0.5" stroke-miterlimit="10"/>
<path d="M220.563 340.183C217.802 338.925 215.671 336.984 214.223 334.544C213.122 334.892 211.805 335.463 211.019 335.526C209.055 335.685 207.047 335.45 205.097 335.224C199.672 334.596 190.671 329.838 186.114 334.782C185.185 335.791 184.696 337.331 185.273 338.577C185.78 339.671 186.938 340.278 188.021 340.8C197.874 345.549 207.989 349.717 218.099 353.884C221.024 355.09 223.36 355.251 224.329 352.094C225.383 348.661 227.406 345.399 229.015 342.178C226.102 341.967 223.213 341.391 220.563 340.183Z" fill="black"/>
<path d="M351.341 256.066C342.951 263.038 332.465 254.464 322.616 252.817C299.806 249 265.607 231.44 249.601 256.851C240.861 270.726 232.07 284.701 226.032 299.961C224.013 305.065 222.22 310.432 219.602 315.212C220.277 315.615 220.943 316.026 221.598 316.442C228.594 320.891 234.993 326.411 242.634 329.752C246.449 331.421 250.374 332.695 254.368 333.663C255.679 331.575 256.915 329.437 258.086 327.256C265.695 313.079 270.705 297.174 277.834 282.757C286.611 265.009 305.309 290.996 310.412 298.12C319.26 305.823 377.619 319.695 351.341 256.066Z" fill="#F65E59" stroke="black" stroke-width="0.5" stroke-miterlimit="10"/>
<path d="M279.063 393.797C279.047 393.816 279.031 393.835 279.013 393.855C278.028 394.991 276.733 395.808 275.411 396.521C272.653 398.011 269.23 399.163 266.185 397.862C261.611 395.906 264.074 390.556 264.492 386.764C265.083 381.396 265.473 376.001 266.345 370.667C267.594 363.025 269.935 355.339 274.778 349.318C276.174 347.582 277.802 345.977 279.796 344.994C281.909 343.953 284.564 343.432 286.217 345.281C287.96 347.232 289.18 350.349 289.634 352.893C290.155 355.822 289.832 358.832 289.382 361.773C288.471 367.711 287.04 373.567 285.113 379.254C284.223 381.882 283.116 384.421 282.283 387.061C281.543 389.415 280.682 391.891 279.063 393.797Z" fill="white" stroke="#222221" stroke-width="0.5" stroke-miterlimit="10"/>
<path d="M324.621 302.101C321.566 298.146 319.104 293.536 315.756 289.911C313.184 287.126 310.689 284.283 308.003 281.606C302.735 276.351 296.663 270.614 289.505 268.129C277.02 263.795 269.725 274.684 267.516 285.363C264.356 300.636 261.197 315.908 258.037 331.182C255.359 344.129 253.376 357.256 251.078 370.279C251.069 370.331 251.059 370.382 251.05 370.433C252.334 370.944 253.664 371.338 254.992 371.712C258.159 372.603 261.37 373.346 264.589 374.022C266.843 374.495 269.113 374.984 271.406 375.225C274.4 375.539 291.852 376.705 292.442 373.204C295.598 354.433 296.723 335.293 299.191 316.406C299.59 313.354 300.033 310.182 301.727 307.617C305.693 301.617 317.804 302.911 323.768 303.652" fill="#F65E59"/>
<path d="M324.621 302.101C321.566 298.146 319.104 293.536 315.756 289.911C313.184 287.126 310.689 284.283 308.003 281.606C302.735 276.351 296.663 270.614 289.505 268.129C277.02 263.795 269.725 274.684 267.516 285.363C264.356 300.636 261.197 315.908 258.037 331.182C255.359 344.129 253.376 357.256 251.078 370.279C251.069 370.331 251.059 370.382 251.05 370.433C252.334 370.944 253.664 371.338 254.992 371.712C258.159 372.603 261.37 373.346 264.589 374.022C266.843 374.495 269.113 374.984 271.406 375.225C274.4 375.539 291.852 376.705 292.442 373.204C295.598 354.433 296.723 335.293 299.191 316.406C299.59 313.354 300.033 310.182 301.727 307.617C305.693 301.617 317.804 302.911 323.768 303.652" stroke="black" stroke-width="0.5" stroke-miterlimit="10"/>
<path d="M241.11 404.505C241.676 403.604 242.441 402.792 243.263 402.167C245.507 400.462 248.186 399.46 250.804 398.428C255.685 396.505 260.867 394.067 263.263 389.38C268.396 392.271 277.881 391.15 282.661 388.046C282.052 392.777 282.151 397.695 281.836 402.466C281.821 402.705 281.799 402.959 281.654 403.147C281.502 403.344 281.25 403.427 281.013 403.499C276.312 404.939 271.611 406.381 266.909 407.822C262.677 409.118 258.661 410.643 254.233 411.241C251.269 411.641 248.221 412.25 245.226 411.891C243.4 411.672 241.457 410.94 240.585 409.313C239.764 407.78 240.158 406.019 241.11 404.505Z" fill="black"/>
<path d="M211.581 153.586C213.911 158.67 215.389 164.395 217.229 169.69C219.723 176.864 222.265 184.134 226.55 190.394C232.198 198.645 240.541 203.508 250.424 204.149C263.45 204.994 279.308 207.044 290.628 199.313C293.144 197.595 295.459 195.39 296.594 192.554C297.729 189.718 297.45 186.167 295.321 183.984C293.613 182.233 291.08 181.625 288.674 181.216C277.165 179.261 265.482 179.21 253.793 178.724C250.565 178.59 247.279 178.445 244.241 177.34C237.73 174.97 233.554 168.723 229.831 162.853C228.147 160.198 226.463 157.542 224.779 154.886C222.476 151.254 220.082 147.525 216.566 145.064C213.05 142.603 208.089 141.704 204.498 144.053C203.35 144.805 202.36 145.92 202.1 147.272C201.69 149.389 203.203 151.502 205.113 152.485C206.905 153.409 209.547 154.122 211.444 153.293C211.491 153.389 211.536 153.488 211.581 153.586Z" fill="white" stroke="#222221" stroke-width="0.5" stroke-miterlimit="10"/>
<path d="M379.221 245.189C383.822 257.517 375.433 266.368 362.844 262.245C341.023 254.291 329.551 171.176 365.331 205.432C371.192 217.627 374.991 231.886 379.221 245.189Z" fill="white" stroke="#222221" stroke-width="0.5" stroke-miterlimit="10"/>
<path d="M370.503 211.33C368.806 207.289 366.767 203.398 364.411 199.707C359.701 192.326 353.741 185.747 346.846 180.374C342.549 177.026 337.171 175.782 331.869 175.009C326.302 174.2 320.729 173.389 315.118 172.951C298.195 171.628 281.257 174.133 264.423 176.269C264.451 187.424 264.479 198.579 264.507 209.733C264.513 209.244 277.554 208.713 278.945 208.502C279.416 213.886 280.235 219.011 280.235 224.371C280.235 230.185 280.882 236.1 281.933 241.811C283.003 247.631 283.677 254.221 286.592 259.491C292.672 270.486 308.867 267.899 319.178 267.044C325.198 266.544 331.173 265.921 337.217 265.709C341.211 265.569 345.355 265.761 349.311 265.103C351.339 264.765 353.238 264.095 353.863 261.943C354.706 259.031 353.57 255.328 352.977 252.484C351.63 246.032 350.758 238.393 348.205 232.086C347.847 231.201 347.456 230.342 347.026 229.517C351.381 227.196 355.348 224.514 359.484 221.8C361.643 220.383 363.781 218.933 365.844 217.376C366.87 216.602 367.933 215.879 368.948 215.089C370.62 213.789 371.39 213.441 370.503 211.33Z" fill="#B4ADF3" stroke="black" stroke-width="0.5" stroke-miterlimit="10"/>
<path d="M302.552 164.947C303.671 166.586 303.298 169.506 302.474 171.169C302.209 171.704 301.796 172.224 301.305 172.547C302.88 174.183 304.653 175.619 306.71 176.607C309.262 177.833 312.201 178.348 315.019 178.185C319.091 177.95 323.206 176.43 326.394 173.815C324.453 173.434 322.823 171.878 322.012 170.039C321.123 168.023 321.067 165.734 321.279 163.539C322.212 153.854 326.557 141.672 317.672 134.342C315.71 132.724 313.586 131.219 311.252 130.193C308.776 129.104 307.108 128.86 304.542 129.565C302.19 130.211 300.365 129.842 298.232 131.329C294.617 133.848 293.359 137.766 293.155 142.004C292.9 147.329 292.849 153.556 295.143 158.486C295.877 160.062 296.98 161.515 298.485 162.376C299.816 163.139 301.643 163.617 302.552 164.947Z" fill="white" stroke="#222221" stroke-width="0.5" stroke-miterlimit="10"/>
<path d="M297.641 138.041C298.543 137.511 299.439 136.969 300.433 136.667C301.341 136.391 303.128 136.303 303.834 137.119C304.407 137.782 304.044 138.299 303.988 139.064C303.822 141.347 305.158 142.48 307.453 141.488C308.591 140.997 309.926 140.335 310.98 140.993C312.525 141.956 311.475 143.567 311.685 144.899C311.976 146.738 313.002 148.97 313.927 150.574C315.212 152.802 316.679 155.395 318.736 157.013C325.117 162.031 325.482 150.732 327.385 147.703C327.929 146.837 328.584 146.007 328.838 145.016C329.418 142.756 327.819 140.705 326.226 138.881C325.97 138.588 325.714 138.302 325.468 138.021C325.242 137.763 325.013 137.485 324.947 137.147C324.768 136.237 326.518 134.593 326.752 133.476C327.161 131.528 326.237 129.134 325 127.67C323.289 125.645 320.474 124.627 317.872 125.091C316.736 125.294 315.477 125.733 314.505 125.11C313.086 124.203 313.675 122.387 312.539 121.222C311.529 120.188 309.836 119.722 308.508 120.391C307.894 120.7 307.377 121.189 306.737 121.438C305.3 121.997 303.729 121.216 302.196 121.059C300.525 120.887 298.788 121.517 297.612 122.723C296.712 123.646 296.112 124.889 295.017 125.566C293.836 126.296 292.345 126.208 291.002 126.556C287.528 127.454 285.399 131.71 286.632 135.096C287.865 138.482 292.079 140.364 295.453 139.141C296.22 138.864 296.933 138.457 297.641 138.041Z" fill="black"/>
<path d="M309.803 147.381C310.221 146.615 310.698 145.863 311.358 145.296C313.749 143.241 317.642 144.689 318.971 147.27C319.603 148.497 319.81 149.979 319.442 151.423C319.052 152.954 317.892 154.302 316.388 154.762" fill="white"/>
<path d="M309.803 147.381C310.221 146.615 310.698 145.863 311.358 145.296C313.749 143.241 317.642 144.689 318.971 147.27C319.603 148.497 319.81 149.979 319.442 151.423C319.052 152.954 317.892 154.302 316.388 154.762" stroke="#222221" stroke-width="0.5" stroke-miterlimit="10"/>
<path d="M346.894 229.129C344.518 224.399 342.451 221.3 340.194 216.453" stroke="black" stroke-width="0.5" stroke-miterlimit="10"/>
<path d="M297.945 156.026C299.573 156.148 301.238 155.699 302.588 154.775" stroke="black" stroke-miterlimit="10"/>
<mask id="mask2_741_1018" style="mask-type:luminance" maskUnits="userSpaceOnUse" x="293" y="129" width="33" height="47">
<path d="M317.671 134.342C331.472 145.728 313.657 166.371 325.305 174.96C317.559 176.372 309.43 175.595 302.088 172.742C302.402 172.864 303.087 167.897 303.114 167.564C303.393 164.094 300.912 163.767 298.486 162.378C296.981 161.517 295.878 160.064 295.143 158.487C292.849 153.557 292.9 147.33 293.155 142.005C293.359 137.766 294.617 133.848 298.232 131.33C300.365 129.843 302.19 130.212 304.542 129.566C307.108 128.861 308.775 129.105 311.252 130.194C313.585 131.219 315.709 132.724 317.671 134.342Z" fill="white"/>
</mask>
<g mask="url(#mask2_741_1018)">
<path d="M301.093 164.234C301.081 164.15 301.076 164.058 301.062 163.976C303.535 164.131 306.228 163.975 308.443 163.061C307.224 164.719 303.963 166.984 301.489 168.654C301.547 168.109 301.764 165.676 301.093 164.234Z" fill="black"/>
</g>
<path d="M317.755 149.523C317.156 147.677 315.104 146.437 313.202 146.771C312.417 146.91 311.618 147.349 311.339 148.099" stroke="black" stroke-width="0.5" stroke-miterlimit="10"/>
<path d="M314.244 146.869C315.381 147.6 315.75 149.311 315.016 150.45" stroke="black" stroke-width="0.5" stroke-miterlimit="10"/>
<path d="M399.672 253.816C354.027 227.228 293.216 274.946 317.605 319.516" stroke="black" stroke-width="3" stroke-miterlimit="10"/>
<path d="M398.528 267.366L402.193 407.617" stroke="black" stroke-miterlimit="10"/>
<path d="M220.457 267.366L216.793 407.617" stroke="black" stroke-miterlimit="10"/>
<path d="M142.828 215.458L206.069 217.659L209.224 126.071L145.982 123.87L142.828 215.458Z" fill="white" stroke="#222221" stroke-width="0.5" stroke-miterlimit="10" stroke-dasharray="4 4"/>
<path d="M145.828 211.422L203.355 213.424L206.224 130.111L148.697 128.109L145.828 211.422Z" fill="#FADDD4"/>
<path d="M209.226 126.069L142.829 215.457" stroke="#222221" stroke-width="0.5" stroke-miterlimit="10" stroke-dasharray="4 4"/>
<path d="M146.17 123.748L205.885 217.778" stroke="#222221" stroke-width="0.5" stroke-miterlimit="10" stroke-dasharray="4 4"/>
<path d="M406.725 262.398H209.235V268.988H406.725V262.398Z" fill="white" stroke="#222221" stroke-width="0.5" stroke-miterlimit="10"/>
<path d="M239.939 262.508H323.987C325.091 262.508 325.988 261.608 325.988 260.497C325.988 259.385 325.092 258.485 323.987 258.485H239.939C238.834 258.485 237.938 259.385 237.938 260.497C237.938 261.607 238.834 262.508 239.939 262.508Z" fill="black"/>
<path d="M237.663 262.508H312.907L306.36 219.05C306.133 217.541 304.858 216.415 303.378 216.415H234.099C232.31 216.415 230.964 218.036 231.238 219.859L237.663 262.508Z" fill="black"/>
<path d="M268.422 239.98C270.411 239.98 272.024 238.358 272.024 236.359C272.024 234.359 270.411 232.738 268.422 232.738C266.432 232.738 264.819 234.359 264.819 236.359C264.819 238.358 266.432 239.98 268.422 239.98Z" fill="#222221" stroke="white" stroke-width="0.5" stroke-miterlimit="10"/>
<path d="M211.628 153.356C208.762 153.608 205.863 153.858 203.02 153.416C202.446 153.327 201.849 153.196 201.411 152.814C200.972 152.432 200.765 151.722 201.107 151.252C201.489 150.726 202.264 150.769 202.91 150.811C205.394 150.972 207.924 150.284 209.989 148.887" fill="white"/>
<path d="M211.628 153.356C208.762 153.608 205.863 153.858 203.02 153.416C202.446 153.327 201.849 153.196 201.411 152.814C200.972 152.432 200.765 151.722 201.107 151.252C201.489 150.726 202.264 150.769 202.91 150.811C205.394 150.972 207.924 150.284 209.989 148.887" stroke="#222221" stroke-width="0.5" stroke-miterlimit="10"/>
<path d="M370.103 165.458C369.445 164.704 368.67 164.056 367.776 163.55C362.909 160.795 356.726 163.048 352.118 166.221C343.256 172.323 334.694 177.984 330.121 188.233C325.094 199.501 323.452 212.246 321.853 224.375C321.632 226.05 320.709 229.546 321.142 231.85C322.771 231.512 324.414 231.202 326.068 231.029C326.885 229.479 327.562 227.729 328.034 226.8C333.566 215.936 340.879 205.892 350.145 197.946C357.342 191.774 368.914 187.137 372.149 177.506C373.505 173.469 372.816 168.57 370.103 165.458Z" fill="#9DD1C9" stroke="black" stroke-width="0.5" stroke-miterlimit="10"/>
<path d="M314.771 215.568C315.986 218.165 316.957 220.859 317.862 223.565C318.31 224.906 320.528 229.588 320.789 231.994L320.951 231.97C321.31 231.896 322.101 231.733 322.239 231.705C323.268 229.316 322.563 226.895 322.731 224.347C323.381 214.459 325.429 203.412 321.323 194.116C318.95 188.742 314.716 183.868 308.796 181.532C302.877 179.196 295.183 179.853 290.358 183.985C289.441 184.771 288.624 185.684 288.201 186.745C287.154 189.368 288.728 192.166 290.706 194.21C292.397 195.959 294.418 197.451 296.665 198.61C299.013 199.82 301.599 200.666 303.875 201.979C306.565 203.53 308.686 205.639 310.436 208.004C312.186 210.367 313.565 212.99 314.771 215.568Z" fill="#9DD1C9" stroke="black" stroke-width="0.5" stroke-miterlimit="10"/>
<path d="M323.591 230.8C329.001 213.94 334.266 195.426 347.771 183.198C351.475 179.845 355.502 176.878 359.52 173.922" stroke="#222221" stroke-width="0.5" stroke-miterlimit="10"/>
<path d="M305.023 192.516C319.93 200.281 319.206 217.468 321.581 231.318" stroke="#222221" stroke-width="0.5" stroke-miterlimit="10"/>
<path d="M359.93 237.303C353.219 234.834 346.474 232.463 339.729 230.086C335.95 228.755 332.232 227.254 328.433 225.98C324.818 224.768 321.028 223.362 317.233 224.574C316.566 224.787 315.891 225.086 315.462 225.641C314.117 227.383 316.302 227.818 317.55 228.009C316.604 227.931 315.783 228.984 316.007 229.912C316.23 230.839 317.336 231.406 318.244 231.129C317.7 231.509 317.093 232.016 317.149 232.68C317.223 233.55 318.313 233.865 319.177 233.96C318.194 234.093 317.855 235.257 318.397 235.974C318.952 236.709 319.953 236.909 320.814 237.011C323.702 237.352 326.616 237.46 329.521 237.332C329.678 237.325 329.841 237.319 329.989 237.372C330.124 237.421 330.237 237.516 330.347 237.61C332.628 239.561 334.979 241.427 337.395 243.206C339.663 244.877 341.612 247.266 343.659 249.228C347.055 252.481 350.409 255.969 354.057 258.898C354.549 259.293 355.043 259.688 355.543 260.073C359.653 263.225 364.831 265.671 370.024 266.127C375.129 266.575 381.291 263.935 382.188 258.26C382.444 256.641 382.213 254.987 381.899 253.379C381.493 251.301 380.95 249.25 380.275 247.244C380.054 246.587 379.811 245.922 379.39 245.373C378.643 244.398 377.442 243.913 376.298 243.472" fill="white"/>
<path d="M359.93 237.303C353.219 234.834 346.474 232.463 339.729 230.086C335.95 228.755 332.232 227.254 328.433 225.98C324.818 224.768 321.028 223.362 317.233 224.574C316.566 224.787 315.891 225.086 315.462 225.641C314.117 227.383 316.302 227.818 317.55 228.009C316.604 227.931 315.783 228.984 316.007 229.912C316.23 230.839 317.336 231.406 318.244 231.129C317.7 231.509 317.093 232.016 317.149 232.68C317.223 233.55 318.313 233.865 319.177 233.96C318.194 234.093 317.855 235.257 318.397 235.974C318.952 236.709 319.953 236.909 320.814 237.011C323.702 237.352 326.616 237.46 329.521 237.332C329.678 237.325 329.841 237.319 329.989 237.372C330.124 237.421 330.237 237.516 330.347 237.61C332.628 239.561 334.979 241.427 337.395 243.206C339.663 244.877 341.612 247.266 343.659 249.228C347.055 252.481 350.409 255.969 354.057 258.898C354.549 259.293 355.043 259.688 355.543 260.073C359.653 263.225 364.831 265.671 370.024 266.127C375.129 266.575 381.291 263.935 382.188 258.26C382.444 256.641 382.213 254.987 381.899 253.379C381.493 251.301 380.95 249.25 380.275 247.244C380.054 246.587 379.811 245.922 379.39 245.373C378.643 244.398 377.442 243.913 376.298 243.472" stroke="#222221" stroke-width="0.5" stroke-miterlimit="10"/>
<path d="M197.968 335.858C198.161 334.96 199.78 331.375 201.162 332.582C202.003 333.317 200.863 334.735 200.61 335.485C200.402 336.102 200.512 336.929 201.106 337.188C201.683 337.44 202.338 337.001 202.696 336.481C203.13 335.851 203.336 335.093 203.668 334.403C204 333.713 204.53 333.042 205.276 332.881C205.452 332.844 205.645 332.838 205.803 332.925C205.978 333.023 206.078 333.217 206.131 333.411C206.303 334.05 206.053 334.717 205.894 335.36C205.735 336.003 205.702 336.778 206.184 337.23C206.74 337.753 207.706 337.516 208.21 336.943C208.713 336.369 208.876 335.578 209.02 334.828" stroke="#F65E59" stroke-width="0.5" stroke-miterlimit="10"/>
<path d="M259.533 395.778C259.252 394.68 258.578 393.688 257.661 393.027C257.108 392.629 256.316 392.363 255.777 392.778C255.349 393.108 255.275 393.747 255.428 394.268C255.581 394.788 255.911 395.234 256.176 395.706C256.527 396.331 256.771 397.08 256.544 397.76C256.317 398.441 255.45 398.916 254.852 398.527C254.566 398.34 254.407 398.015 254.256 397.708C253.978 397.141 253.671 396.562 253.178 396.17C252.685 395.777 251.953 395.618 251.42 395.955C250.753 396.378 250.687 397.33 250.826 398.111C250.965 398.891 251.232 399.707 250.969 400.453C250.339 400.786 249.533 400.572 248.98 400.121C248.426 399.672 248.07 399.027 247.726 398.401" stroke="#F65E59" stroke-width="0.5" stroke-miterlimit="10"/>
<path d="M83.2427 317.787C82.0616 318.154 80.9346 318.632 79.8728 319.211C79.9482 319.291 80.0297 319.363 80.099 319.453C81.1537 320.841 80.9071 322.839 79.5467 323.916C78.1863 324.993 76.2287 324.741 75.174 323.353C75.0997 323.255 75.0467 323.148 74.9845 323.044C74.1489 323.956 73.4009 324.947 72.7528 326.006C72.8649 326.038 72.977 326.061 73.0871 326.106C74.6808 326.77 75.4461 328.626 74.795 330.252C74.1448 331.879 72.3259 332.659 70.7321 331.995C70.6078 331.944 70.4967 331.873 70.3826 331.806C70.1034 333.016 69.9373 334.264 69.8955 335.537C70.0208 335.504 70.1431 335.463 70.2746 335.444C71.9804 335.205 73.5518 336.423 73.7851 338.163C74.0185 339.903 72.8262 341.507 71.1204 341.745C70.9706 341.766 70.8238 341.763 70.6771 341.762C71.0378 342.995 71.5147 344.171 72.0925 345.277C72.1944 345.17 72.2943 345.06 72.4135 344.966C73.7739 343.889 75.7315 344.141 76.7861 345.529C77.8408 346.917 77.5942 348.915 76.2338 349.992C76.1044 350.094 75.9658 350.173 75.8262 350.252C76.7393 351.128 77.7338 351.91 78.7977 352.586C78.8344 352.431 78.8711 352.274 78.9322 352.121C79.5823 350.495 81.4013 349.714 82.995 350.378C84.5888 351.042 85.3531 352.898 84.7029 354.524C84.6377 354.688 84.5521 354.839 84.4635 354.984C85.6741 355.273 86.9234 355.443 88.1982 355.48C88.1513 355.321 88.1054 355.16 88.082 354.99C87.8487 353.25 89.0409 351.646 90.7468 351.407C92.4526 351.169 94.0239 352.387 94.2573 354.127C94.2807 354.304 94.2807 354.479 94.2756 354.652C95.4964 354.274 96.6591 353.774 97.7525 353.171C97.6343 353.057 97.5161 352.943 97.4132 352.806C96.3575 351.419 96.6051 349.421 97.9655 348.345C99.3259 347.268 101.283 347.52 102.338 348.908C102.442 349.044 102.523 349.19 102.601 349.336C103.453 348.399 104.213 347.378 104.868 346.288C104.72 346.251 104.571 346.215 104.424 346.155C102.83 345.491 102.066 343.635 102.716 342.009C103.366 340.382 105.185 339.602 106.779 340.265C106.925 340.326 107.055 340.407 107.186 340.486C107.459 339.263 107.615 338.002 107.646 336.715C107.512 336.753 107.379 336.796 107.237 336.816C105.532 337.054 103.959 335.836 103.726 334.096C103.493 332.356 104.685 330.752 106.391 330.513C106.529 330.494 106.666 330.499 106.802 330.498C106.434 329.28 105.953 328.12 105.372 327.027C105.283 327.117 105.2 327.212 105.099 327.292C103.739 328.369 101.781 328.117 100.726 326.729C99.6714 325.341 99.918 323.343 101.278 322.266C101.378 322.187 101.487 322.13 101.593 322.065C100.694 321.218 99.7182 320.46 98.6768 319.806C98.6462 319.916 98.6248 320.028 98.581 320.138C97.9309 321.764 96.1119 322.545 94.5182 321.881C92.9244 321.217 92.1601 319.361 92.8103 317.735C92.8551 317.623 92.9173 317.526 92.9723 317.422C91.7994 317.149 90.5888 316.989 89.3558 316.952C89.3802 317.058 89.4149 317.158 89.4302 317.268C89.6635 319.008 88.4713 320.612 86.7654 320.85C85.0606 321.089 83.4883 319.871 83.2549 318.131C83.2386 318.016 83.2457 317.903 83.2427 317.787ZM87.0334 323.379C93.9832 322.407 100.389 327.368 101.341 334.46C102.293 341.551 97.4315 348.088 90.4818 349.06C83.5321 350.032 77.1275 345.07 76.1747 337.979C75.223 330.888 80.0837 324.351 87.0334 323.379Z" fill="#F65E59"/>
<path d="M87.2475 324.971C93.3352 324.12 98.9469 328.466 99.7815 334.678C100.616 340.89 96.3566 346.617 90.2689 347.468C84.1813 348.319 78.5695 343.973 77.7349 337.761C76.9014 331.549 81.1599 325.823 87.2475 324.971Z" stroke="#2D2D2D" stroke-width="0.5" stroke-miterlimit="10" stroke-linecap="round"/>
<path d="M34.3346 305.508C32.4973 306.013 30.7375 306.691 29.0734 307.528C29.1865 307.656 29.3078 307.771 29.4097 307.913C30.9667 310.105 30.4868 313.169 28.3397 314.758C26.1916 316.347 23.1885 315.858 21.6315 313.666C21.5214 313.512 21.445 313.345 21.3553 313.182C20.0234 314.543 18.823 316.032 17.7714 317.628C17.9416 317.683 18.1148 317.724 18.2819 317.8C20.7042 318.904 21.7904 321.802 20.7092 324.275C19.627 326.746 16.787 327.855 14.3648 326.751C14.1753 326.665 14.0081 326.549 13.8359 326.442C13.3458 328.292 13.0299 330.205 12.9015 332.164C13.0961 332.118 13.2857 332.062 13.4895 332.041C16.1277 331.761 18.4888 333.716 18.7639 336.409C19.038 339.102 17.1213 341.511 14.483 341.792C14.2517 341.816 14.0265 341.802 13.8003 341.794C14.2965 343.712 14.9721 345.546 15.8067 347.282C15.9688 347.122 16.1277 346.958 16.3162 346.819C18.4643 345.23 21.4674 345.719 23.0245 347.91C24.5815 350.102 24.1016 353.167 21.9545 354.756C21.7497 354.907 21.5316 355.022 21.3145 355.136C22.678 356.531 24.1709 357.788 25.7758 358.883C25.84 358.645 25.9042 358.406 26.0061 358.174C27.0883 355.702 29.9284 354.593 32.3506 355.697C34.7728 356.8 35.8591 359.7 34.7779 362.171C34.6678 362.421 34.5292 362.648 34.3866 362.868C36.2371 363.376 38.1529 363.701 40.1155 363.824C40.0503 363.577 39.9881 363.328 39.9617 363.064C39.6875 360.372 41.6043 357.963 44.2426 357.683C46.8808 357.403 49.2429 359.359 49.517 362.051C49.5445 362.326 49.5354 362.595 49.5191 362.862C51.4185 362.341 53.2334 361.633 54.9474 360.759C54.7701 360.578 54.5948 360.394 54.443 360.18C52.8859 357.988 53.3659 354.924 55.513 353.335C57.6611 351.746 60.6641 352.235 62.2212 354.427C62.374 354.642 62.4912 354.87 62.6054 355.101C63.9647 353.701 65.1855 352.167 66.2484 350.522C66.0211 350.458 65.7929 350.394 65.5717 350.294C63.1495 349.19 62.0632 346.291 63.1444 343.82C64.2266 341.348 67.0667 340.239 69.4889 341.343C69.71 341.443 69.9067 341.574 70.1054 341.703C70.5853 339.834 70.889 337.899 71.0001 335.919C70.7912 335.972 70.5843 336.03 70.3642 336.054C67.726 336.333 65.3639 334.378 65.0897 331.685C64.8156 328.992 66.7324 326.583 69.3707 326.303C69.5857 326.28 69.7946 326.294 70.0045 326.301C69.496 324.406 68.8122 322.593 67.9715 320.88C67.8299 321.014 67.6974 321.157 67.5374 321.275C65.3893 322.864 62.3863 322.376 60.8292 320.184C59.2721 317.992 59.7521 314.927 61.8992 313.338C62.0571 313.222 62.2273 313.14 62.3934 313.046C61.0514 311.695 59.584 310.478 58.0116 309.414C57.9586 309.583 57.9199 309.755 57.8475 309.92C56.7653 312.392 53.9253 313.501 51.5031 312.397C49.0809 311.293 47.9946 308.394 49.0758 305.923C49.1502 305.754 49.2511 305.607 49.3407 305.451C47.5462 304.969 45.6906 304.662 43.7932 304.54C43.8268 304.703 43.8747 304.86 43.892 305.03C44.1661 307.722 42.2494 310.131 39.6111 310.411C36.9729 310.691 34.6118 308.735 34.3377 306.043C34.3173 305.86 34.3336 305.686 34.3346 305.508ZM39.8975 314.318C50.6502 313.177 60.2728 321.147 61.3907 332.119C62.5086 343.091 54.6977 352.911 43.945 354.052C33.1923 355.192 23.5707 347.222 22.4528 336.25C21.3349 325.277 29.1457 315.458 39.8975 314.318Z" fill="#B4ADF3"/>
<path d="M39.0313 356.684C51.1913 358.321 62.3873 349.555 63.9912 337.147C65.5952 324.739 57.0079 313.314 44.8479 311.677C32.6879 310.04 21.4909 318.803 19.8869 331.212C18.284 343.62 26.8713 355.048 39.0313 356.684ZM27.125 332.186C28.2021 323.849 35.7256 317.963 43.8941 319.062C52.0636 320.161 57.8323 327.838 56.7542 336.173C55.677 344.51 48.1546 350.397 39.9861 349.298C31.8166 348.199 26.0479 340.521 27.125 332.186Z" fill="#968FD7"/>
<path d="M24.5 331.833C25.7686 322.019 34.6239 315.089 44.2405 316.384C53.857 317.678 60.6478 326.714 59.3801 336.528C58.1114 346.341 49.2571 353.272 39.6406 351.979C30.0231 350.683 23.2313 341.646 24.5 331.833Z" stroke="#2D2D2D" stroke-width="0.5" stroke-miterlimit="10" stroke-linecap="round"/>
<path d="M203.38 314.1V303.319H131.42V314.1H203.38Z" fill="#7696EA" stroke="black" stroke-width="0.5" stroke-miterlimit="10"/>
<path d="M117.298 308.763L131.538 314.101V303.319L117.298 308.763Z" fill="black" stroke="#222221" stroke-miterlimit="10"/>
<path d="M95.5912 308.916L106.596 315.916L119.296 308.848L107.005 301.503L95.5912 308.916Z" fill="black"/>
<path d="M105.98 306.857C106.998 306.857 107.824 307.687 107.824 308.71C107.824 309.733 106.998 310.563 105.98 310.563C104.962 310.563 104.137 309.733 104.137 308.71C104.137 307.687 104.962 306.857 105.98 306.857Z" fill="#FADDD4"/>
<path d="M95.5912 308.71H105.98" stroke="#FADDD4" stroke-width="0.5" stroke-miterlimit="10"/>
<path d="M124.323 308.198V309.075C124.323 311.879 122.063 314.151 119.274 314.151C116.485 314.151 114.225 311.879 114.225 309.075V308.198C114.225 305.395 116.485 303.122 119.274 303.122C122.062 303.122 124.323 305.395 124.323 308.198Z" fill="#B4ADF3" stroke="black" stroke-width="0.5" stroke-miterlimit="10"/>
<path d="M410.325 33.5912C409.97 33.0515 409.552 32.5485 409.069 32.0938C404.98 28.2395 398.442 29.3344 393.103 31.0531C381.158 34.8962 367.655 41.769 360.678 52.6159C353.004 64.5445 348.922 78.748 344.998 92.257C344.456 94.1222 342.798 97.9355 342.891 100.631C344.801 100.533 346.723 100.469 348.635 100.562C349.833 98.9434 350.906 97.0731 351.607 96.099C359.782 84.7174 369.844 74.5813 381.758 67.1728C392.325 60.6031 404.357 57.7004 410.436 45.6212C412.321 41.8765 412.563 36.9959 410.325 33.5912Z" fill="#9DD1C9" stroke="black" stroke-width="0.5" stroke-miterlimit="10"/>
<path d="M338.663 100.546H340.8C340.797 100.516 340.798 100.484 340.794 100.454C340.701 99.768 340.504 99.1073 340.398 98.3596C340.21 97.025 340.012 95.7119 339.696 94.3906C339.006 91.5083 338.096 88.6875 337.259 85.8472C335.919 81.3066 334.392 76.7896 332.102 72.6321C329.77 68.3978 326.556 64.5302 322.346 62.1785C312.238 56.5307 293.983 59.8001 289.071 71.2903C287.451 75.0801 287.789 79.886 290.63 82.8635C291.994 84.2923 293.816 85.2132 295.702 85.7837C298.259 86.557 300.994 86.728 303.626 86.2784C310.048 85.1814 317.459 83.2425 324.083 85.0022C324.75 85.1794 325.402 85.4108 326.034 85.6884C329.446 87.19 332.101 89.9832 334.353 92.89C336.19 95.2622 337.985 97.6529 338.663 100.546Z" fill="#B4ADF3" stroke="black" stroke-width="0.5" stroke-miterlimit="10"/>
<path d="M336.097 74.0006C337.208 78.2892 337.968 82.6699 338.635 87.0528C338.967 89.2263 341.007 96.9656 340.862 100.733H341.087C341.59 100.704 342.696 100.643 342.892 100.63C344.784 97.1961 344.329 93.2987 345.085 89.4147C348.019 74.3375 353.092 57.808 349.446 42.5126C347.338 33.6691 342.599 25.1554 335.046 20.1498C327.493 15.1442 316.909 14.3269 309.499 19.5435C308.09 20.535 306.791 21.7497 305.996 23.282C304.03 27.0718 305.588 31.7558 307.849 35.3755C309.783 38.4709 312.217 41.2497 315.029 43.5686C317.967 45.992 321.302 47.9105 324.12 50.4732C327.453 53.5019 329.895 57.2549 331.78 61.313C333.666 65.3752 334.994 69.7427 336.097 74.0006Z" fill="#F65E59" stroke="black" stroke-width="0.5" stroke-miterlimit="10"/>
<path d="M345.858 99.8673C354.939 81.6467 364.141 61.5209 381.621 49.9887C386.414 46.8258 391.509 44.1596 396.591 41.5037" stroke="#222221" stroke-width="0.5" stroke-miterlimit="10"/>
<path d="M339.797 100.235C335.271 89.7046 330.916 80.8416 321.246 76.2683C314.988 73.4096 308.162 73.9811 302.115 74.5649" stroke="#222221" stroke-width="0.5" stroke-miterlimit="10"/>
<path d="M327.643 36.1745C346.276 51.6808 341.725 77.9829 342.078 99.8817" stroke="#222221" stroke-width="0.5" stroke-miterlimit="10"/>
<path d="M327.415 100.655H368.981" stroke="#222221" stroke-width="0.5" stroke-miterlimit="10"/>
<path d="M32.8489 387.942C34.2134 389.154 35.9569 389.755 37.7586 389.636C39.2402 389.539 40.7494 388.805 42.3656 387.397L80.6411 385.089L80.0032 375.335L41.8122 377.638C40.5181 376.443 38.7786 375.858 36.872 375.985C35.157 376.097 33.6315 376.849 32.5075 377.994C31.1889 379.338 30.4236 381.225 30.5571 383.257C30.6733 385.07 31.4885 386.733 32.8489 387.942ZM35.2253 381.387C35.5249 380.941 36.1139 380.617 36.6336 380.539C37.1706 380.46 37.6241 380.609 38.0745 380.86C37.9715 380.803 37.8696 380.746 37.7667 380.689C37.7759 380.692 37.7851 380.696 37.7942 380.699C38.7134 381.032 39.2127 382.006 39.1505 382.946C39.0925 383.829 38.2355 384.796 37.3316 384.842C37.3204 384.843 37.3092 384.843 37.298 384.844C36.9138 384.864 36.5724 384.822 36.2443 384.707C36.2433 384.711 36.2433 384.716 36.2423 384.72C36.2137 384.71 36.1821 384.69 36.1526 384.675C36.0018 384.615 35.854 384.542 35.7063 384.442C35.6716 384.418 35.6451 384.386 35.6135 384.36C34.6454 383.715 34.6373 382.261 35.2253 381.387Z" fill="#7696EA" stroke="black" stroke-width="0.5" stroke-miterlimit="10"/>
<path d="M79.9992 378.278L41.3048 380.619" stroke="black" stroke-width="0.5" stroke-miterlimit="10"/>
<path d="M80.2886 382.103L41.4424 384.428" stroke="black" stroke-width="0.5" stroke-miterlimit="10"/>
<path d="M84.5725 388.428C89.0644 388.133 92.635 384.648 93.061 380.143L93.2006 378.665L85.7464 382.299L82.8636 376.323L90.4431 372.63L89.314 371.812C87.598 370.568 85.4886 369.96 83.3762 370.1C81.1241 370.249 79.0494 371.204 77.4781 372.805C77.3497 372.936 77.2243 373.071 77.1041 373.21C75.495 375.055 74.6961 377.417 74.8571 379.867C75.1873 384.919 79.5467 388.76 84.5725 388.428Z" fill="#7696EA" stroke="black" stroke-width="0.5" stroke-miterlimit="10"/>
<path d="M32.423 381.108C33.281 378.586 36.01 377.24 38.5188 378.103C41.0276 378.965 42.3666 381.708 41.5086 384.23C40.6506 386.752 37.9216 388.098 35.4128 387.235C32.904 386.373 31.565 383.63 32.423 381.108Z" stroke="black" stroke-width="0.5" stroke-miterlimit="10"/>
<path d="M132.212 12.0039L122.933 23.9949" stroke="#F65E59" stroke-miterlimit="10"/>
<path d="M139.502 12.0038L130.223 23.9949" stroke="#F65E59" stroke-miterlimit="10"/>
<path d="M146.792 12.0038L137.514 23.9949" stroke="#F65E59" stroke-miterlimit="10"/>
<path d="M208.314 12.0038L199.036 23.9949" stroke="#F65E59" stroke-miterlimit="10"/>
<path d="M215.606 12.0038L206.326 23.9949" stroke="#F65E59" stroke-miterlimit="10"/>
<path d="M146.123 19.3898H152.779" stroke="#F65E59" stroke-miterlimit="10"/>
<path d="M155.286 19.3898H161.943" stroke="#F65E59" stroke-miterlimit="10"/>
<path d="M164.45 19.3898H171.106" stroke="#F65E59" stroke-miterlimit="10"/>
<path d="M214.243 19.3898H220.9" stroke="#F65E59" stroke-miterlimit="10"/>
<path d="M223.407 19.3898H230.063" stroke="#F65E59" stroke-miterlimit="10"/>
<path d="M190.73 19.3898H197.386" stroke="#F65E59" stroke-miterlimit="10"/>
<path d="M183.036 13.9162L175.255 19.1747L181.998 25.2117" stroke="#F65E59" stroke-miterlimit="10"/>
<path d="M189.606 13.9162L181.825 19.1747L188.569 25.2117" stroke="#F65E59" stroke-miterlimit="10"/>
<path d="M53.7053 71.4215L44.369 78.199L53.1866 83.9339" stroke="#7696EA" stroke-miterlimit="10"/>
<path d="M139.808 71.4214L130.471 78.199L139.289 83.9339" stroke="#7696EA" stroke-miterlimit="10"/>
<path d="M59.9296 75.3679H71.3406" stroke="#7696EA" stroke-miterlimit="10"/>
<path d="M59.9296 79.9874H71.3406" stroke="#7696EA" stroke-miterlimit="10"/>
<path d="M81.7142 71.9428L77.5647 83.4125" stroke="#7696EA" stroke-miterlimit="10"/>
<path d="M87.9383 71.9428L83.7888 83.4125" stroke="#7696EA" stroke-miterlimit="10"/>
<path d="M151.219 71.9428L147.069 83.4125" stroke="#7696EA" stroke-miterlimit="10"/>
<path d="M157.443 71.9428L153.293 83.4125" stroke="#7696EA" stroke-miterlimit="10"/>
<path d="M95.7196 75.0709C95.7196 75.6465 95.255 76.1136 94.6823 76.1136C94.1096 76.1136 93.6449 75.6465 93.6449 75.0709C93.6449 74.4953 94.1096 74.0282 94.6823 74.0282C95.255 74.0282 95.7196 74.4953 95.7196 75.0709Z" stroke="#7696EA" stroke-miterlimit="10"/>
<path d="M95.7196 80.2844C95.7196 80.86 95.255 81.3271 94.6823 81.3271C94.1096 81.3271 93.6449 80.86 93.6449 80.2844C93.6449 79.7088 94.1096 79.2417 94.6823 79.2417C95.255 79.2417 95.7196 79.7088 95.7196 80.2844Z" stroke="#7696EA" stroke-miterlimit="10"/>
<path d="M111.799 77.6777C111.799 81.4214 109.709 84.4552 107.131 84.4552C104.552 84.4552 102.462 81.4214 102.462 77.6777C102.462 73.934 104.552 70.9001 107.131 70.9001C109.709 70.9001 111.799 73.935 111.799 77.6777Z" stroke="#7696EA" stroke-miterlimit="10"/>
<path d="M126.322 77.6777C126.322 81.4214 124.232 84.4552 121.654 84.4552C119.076 84.4552 116.986 81.4214 116.986 77.6777C116.986 73.934 119.076 70.9001 121.654 70.9001C124.232 70.9001 126.322 73.935 126.322 77.6777Z" stroke="#7696EA" stroke-miterlimit="10"/>
<path d="M383.825 116.178L375.59 122.955L383.367 128.691" stroke="#7696EA" stroke-miterlimit="10"/>
<path d="M395.977 116.178L387.741 122.955L395.519 128.691" stroke="#7696EA" stroke-miterlimit="10"/>
<path d="M400.094 120.124H410.158" stroke="#7696EA" stroke-miterlimit="10"/>
<path d="M400.094 124.745H410.158" stroke="#7696EA" stroke-miterlimit="10"/>
<path d="M338.075 122.434H345.853" stroke="#7696EA" stroke-miterlimit="10"/>
<path d="M350.427 122.434H358.206" stroke="#7696EA" stroke-miterlimit="10"/>
<path d="M362.78 122.434H370.557" stroke="#7696EA" stroke-miterlimit="10"/>
</svg>
