<svg width="72" height="72" viewBox="0 0 72 72" fill="none" xmlns="http://www.w3.org/2000/svg">
<g clip-path="url(#clip0_774_49)">
<path d="M19.971 54C12.255 54 6 47.979 6 40.551C6 33.126 12.255 27.105 19.971 27.105C21.15 21.819 25.353 17.505 30.996 15.786C36.636 14.07 42.864 15.207 47.328 18.786C51.792 22.356 53.814 27.807 52.638 33.093H55.608C61.347 33.093 66 37.773 66 43.551C66 49.332 61.347 54.012 55.605 54.012H19.971" stroke="white" stroke-width="2.75" stroke-linecap="round" stroke-linejoin="round"/>
<path d="M28.918 44.894L32.779 41.492C35.047 39.548 38.368 36.767 38.368 34.418C38.368 32.717 37.126 31.61 34.885 31.61C32.968 31.61 31.483 32.744 31.105 33.986L28.81 32.96C29.35 31.232 31.537 29.207 34.885 29.207C38.611 29.207 40.987 31.151 40.987 34.283C40.987 37.631 37.423 40.601 35.668 42.167L32.833 44.678H40.96V47H28.918V44.894Z" fill="white"/>
</g>
<defs>
<clipPath id="clip0_774_49">
<rect width="72" height="72" fill="white"/>
</clipPath>
</defs>
</svg>
