<svg width="72" height="72" viewBox="0 0 72 72" fill="none" xmlns="http://www.w3.org/2000/svg">
<g clip-path="url(#clip0_774_55)">
<path d="M19.971 54C12.255 54 6 47.979 6 40.551C6 33.126 12.255 27.105 19.971 27.105C21.15 21.819 25.353 17.505 30.996 15.786C36.636 14.07 42.864 15.207 47.328 18.786C51.792 22.356 53.814 27.807 52.638 33.093H55.608C61.347 33.093 66 37.773 66 43.551C66 49.332 61.347 54.012 55.605 54.012H19.971" stroke="white" stroke-width="2.75" stroke-linecap="round" stroke-linejoin="round"/>
<path d="M36.019 35.795C38.638 36.119 41.338 37.685 41.338 41.276C41.338 45.299 38.125 47.216 34.75 47.216C32.266 47.216 29.89 46.136 28.81 44.57L30.457 42.923C31.24 43.922 32.86 44.759 34.75 44.759C37.045 44.759 38.8 43.436 38.8 41.276C38.8 39.035 37.045 37.739 34.75 37.739C33.751 37.739 32.725 37.901 31.645 38.279L31.672 36.389L37.342 31.772H30.052V29.45H40.933V31.61L36.019 35.795Z" fill="white"/>
</g>
<defs>
<clipPath id="clip0_774_55">
<rect width="72" height="72" fill="white"/>
</clipPath>
</defs>
</svg>
