<svg width="32" height="32" viewBox="0 0 32 32" fill="none" xmlns="http://www.w3.org/2000/svg">
<path d="M16 0C12.8355 0 9.74207 0.938384 7.11088 2.69649C4.4797 4.45459 2.42894 6.95345 1.21793 9.87706C0.0069325 12.8007 -0.309921 16.0177 0.307443 19.1214C0.924806 22.2251 2.44866 25.0761 4.6863 27.3137C6.92394 29.5513 9.77487 31.0752 12.8786 31.6926C15.9823 32.3099 19.1993 31.9931 22.1229 30.7821C25.0466 29.5711 27.5454 27.5203 29.3035 24.8891C31.0616 22.2579 32 19.1645 32 16C31.9955 11.7579 30.3084 7.69085 27.3088 4.69124C24.3092 1.69163 20.2421 0.00447972 16 0ZM22.1538 17.2308H12.8169L15.64 20.0523C15.7544 20.1667 15.8451 20.3024 15.907 20.4518C15.9688 20.6012 16.0007 20.7614 16.0007 20.9231C16.0007 21.0848 15.9688 21.2449 15.907 21.3943C15.8451 21.5437 15.7544 21.6795 15.64 21.7938C15.5257 21.9082 15.3899 21.9989 15.2405 22.0608C15.0911 22.1227 14.931 22.1545 14.7692 22.1545C14.6075 22.1545 14.4474 22.1227 14.298 22.0608C14.1486 21.9989 14.0128 21.9082 13.8985 21.7938L8.97539 16.8708C8.86096 16.7565 8.77018 16.6207 8.70824 16.4713C8.6463 16.3219 8.61442 16.1617 8.61442 16C8.61442 15.8383 8.6463 15.6781 8.70824 15.5287C8.77018 15.3793 8.86096 15.2435 8.97539 15.1292L13.8985 10.2062C14.1294 9.97521 14.4426 9.84547 14.7692 9.84547C15.0958 9.84547 15.4091 9.97521 15.64 10.2062C15.8709 10.4371 16.0007 10.7503 16.0007 11.0769C16.0007 11.4035 15.8709 11.7167 15.64 11.9477L12.8169 14.7692H22.1538C22.4803 14.7692 22.7933 14.8989 23.0241 15.1297C23.2549 15.3605 23.3846 15.6736 23.3846 16C23.3846 16.3264 23.2549 16.6395 23.0241 16.8703C22.7933 17.1011 22.4803 17.2308 22.1538 17.2308Z" fill="#ECB0A9"/>
</svg>
