<svg width="65" height="64" viewBox="0 0 65 64" fill="none" xmlns="http://www.w3.org/2000/svg">
<g clip-path="url(#clip0_941_1593)">
<path d="M63.9854 4H35.9854V1C35.9854 0.734784 35.88 0.48043 35.6925 0.292893C35.5049 0.105357 35.2506 0 34.9854 0C34.7201 0 34.4658 0.105357 34.2782 0.292893C34.0907 0.48043 33.9854 0.734784 33.9854 1V4H1.98535C1.72014 4 1.46578 4.10536 1.27824 4.29289C1.09071 4.48043 0.985352 4.73478 0.985352 5L0.985352 59C0.985352 59.2652 1.09071 59.5196 1.27824 59.7071C1.46578 59.8946 1.72014 60 1.98535 60H33.9854V63C33.9854 63.2652 34.0907 63.5196 34.2782 63.7071C34.4658 63.8946 34.7201 64 34.9854 64C35.2506 64 35.5049 63.8946 35.6925 63.7071C35.88 63.5196 35.9854 63.2652 35.9854 63V60H63.9854C64.2506 60 64.5049 59.8946 64.6925 59.7071C64.88 59.5196 64.9854 59.2652 64.9854 59V5C64.9854 4.73478 64.88 4.48043 64.6925 4.29289C64.5049 4.10536 64.2506 4 63.9854 4ZM62.9854 6V12H35.9854V6H62.9854ZM2.98535 6H33.9854V12H2.98535V6ZM2.98535 58V14H33.9854V58H2.98535ZM35.9854 58V14H62.9854V58H35.9854Z" fill="#041330"/>
<path d="M6.9855 8C6.72025 8 6.46585 8.10536 6.27829 8.29289C6.09072 8.48043 5.98535 8.73478 5.98535 9C5.98535 9.26522 6.09072 9.51957 6.27829 9.70711C6.46585 9.89464 6.72025 10 6.9855 10C7.25076 10 7.50515 9.89464 7.69272 9.70711C7.88028 9.51957 7.98565 9.26522 7.98565 9C7.98565 8.73478 7.88028 8.48043 7.69272 8.29289C7.50515 8.10536 7.25076 8 6.9855 8Z" fill="#041330"/>
<path d="M11.9855 8C11.7202 8 11.4659 8.10536 11.2783 8.29289C11.0907 8.48043 10.9854 8.73478 10.9854 9C10.9854 9.26522 11.0907 9.51957 11.2783 9.70711C11.4659 9.89464 11.7202 10 11.9855 10C12.2508 10 12.5052 9.89464 12.6927 9.70711C12.8803 9.51957 12.9857 9.26522 12.9857 9C12.9857 8.73478 12.8803 8.48043 12.6927 8.29289C12.5052 8.10536 12.2508 8 11.9855 8Z" fill="#041330"/>
<path d="M16.9855 8C16.7202 8 16.4659 8.10536 16.2783 8.29289C16.0907 8.48043 15.9854 8.73478 15.9854 9C15.9854 9.26522 16.0907 9.51957 16.2783 9.70711C16.4659 9.89464 16.7202 10 16.9855 10C17.2508 10 17.5052 9.89464 17.6927 9.70711C17.8803 9.51957 17.9857 9.26522 17.9857 9C17.9857 8.73478 17.8803 8.48043 17.6927 8.29289C17.5052 8.10536 17.2508 8 16.9855 8Z" fill="#041330"/>
<path d="M29.9854 17H6.98535C6.72014 17 6.46578 17.1054 6.27824 17.2929C6.09071 17.4804 5.98535 17.7348 5.98535 18V27C5.98535 27.2652 6.09071 27.5196 6.27824 27.7071C6.46578 27.8946 6.72014 28 6.98535 28H29.9854C30.2506 28 30.5049 27.8946 30.6925 27.7071C30.88 27.5196 30.9854 27.2652 30.9854 27V18C30.9854 17.7348 30.88 17.4804 30.6925 17.2929C30.5049 17.1054 30.2506 17 29.9854 17ZM28.9854 26H7.98535V19H28.9854V26Z" fill="#041330"/>
<path d="M27.4854 31C26.7931 31 26.1164 31.2053 25.5409 31.5899C24.9653 31.9744 24.5167 32.5211 24.2518 33.1606C23.9869 33.8001 23.9176 34.5039 24.0526 35.1828C24.1877 35.8617 24.521 36.4854 25.0105 36.9749C25.5 37.4644 26.1236 37.7977 26.8025 37.9327C27.4815 38.0678 28.1852 37.9985 28.8247 37.7336C29.4643 37.4687 30.0109 37.0201 30.3955 36.4445C30.7801 35.8689 30.9854 35.1922 30.9854 34.5C30.9854 33.5717 30.6166 32.6815 29.9602 32.0251C29.3039 31.3688 28.4136 31 27.4854 31ZM27.4854 36C27.0875 36 26.706 35.842 26.4247 35.5607C26.1434 35.2794 25.9854 34.8978 25.9854 34.5C25.9854 34.1022 26.1434 33.7206 26.4247 33.4393C26.706 33.158 27.0875 33 27.4854 33C27.8832 33 28.2647 33.158 28.546 33.4393C28.8273 33.7206 28.9854 34.1022 28.9854 34.5C28.9854 34.8978 28.8273 35.2794 28.546 35.5607C28.2647 35.842 27.8832 36 27.4854 36Z" fill="#041330"/>
<path d="M18.4854 38C19.1776 38 19.8543 37.7947 20.4298 37.4101C21.0054 37.0256 21.454 36.4789 21.7189 35.8394C21.9838 35.1999 22.0531 34.4961 21.9181 33.8172C21.7831 33.1383 21.4497 32.5146 20.9602 32.0251C20.4707 31.5356 19.8471 31.2023 19.1682 31.0673C18.4892 30.9322 17.7855 31.0015 17.146 31.2664C16.5064 31.5313 15.9598 31.9799 15.5752 32.5555C15.1906 33.1311 14.9854 33.8078 14.9854 34.5C14.9854 35.4283 15.3541 36.3185 16.0105 36.9749C16.6669 37.6313 17.5571 38 18.4854 38ZM18.4854 33C18.8832 33 19.2647 33.158 19.546 33.4393C19.8273 33.7206 19.9854 34.1022 19.9854 34.5C19.9854 34.8978 19.8273 35.2794 19.546 35.5607C19.2647 35.842 18.8832 36 18.4854 36C18.0875 36 17.706 35.842 17.4247 35.5607C17.1434 35.2794 16.9854 34.8978 16.9854 34.5C16.9854 34.1022 17.1434 33.7206 17.4247 33.4393C17.706 33.158 18.0875 33 18.4854 33Z" fill="#041330"/>
<path d="M9.48535 38C10.1776 38 10.8543 37.7947 11.4298 37.4101C12.0054 37.0256 12.454 36.4789 12.7189 35.8394C12.9838 35.1999 13.0531 34.4961 12.9181 33.8172C12.7831 33.1383 12.4497 32.5146 11.9602 32.0251C11.4707 31.5356 10.8471 31.2023 10.1682 31.0673C9.48923 30.9322 8.7855 31.0015 8.14596 31.2664C7.50642 31.5313 6.95979 31.9799 6.57521 32.5555C6.19062 33.1311 5.98535 33.8078 5.98535 34.5C5.98535 35.4283 6.3541 36.3185 7.01048 36.9749C7.66686 37.6313 8.55709 38 9.48535 38ZM9.48535 33C9.88318 33 10.2647 33.158 10.546 33.4393C10.8273 33.7206 10.9854 34.1022 10.9854 34.5C10.9854 34.8978 10.8273 35.2794 10.546 35.5607C10.2647 35.842 9.88318 36 9.48535 36C9.08753 36 8.706 35.842 8.42469 35.5607C8.14339 35.2794 7.98535 34.8978 7.98535 34.5C7.98535 34.1022 8.14339 33.7206 8.42469 33.4393C8.706 33.158 9.08753 33 9.48535 33Z" fill="#041330"/>
<path d="M29.9854 40H24.9854C24.7201 40 24.4658 40.1054 24.2782 40.2929C24.0907 40.4804 23.9854 40.7348 23.9854 41C23.9854 41.2652 24.0907 41.5196 24.2782 41.7071C24.4658 41.8946 24.7201 42 24.9854 42H29.9854C30.2506 42 30.5049 41.8946 30.6925 41.7071C30.88 41.5196 30.9854 41.2652 30.9854 41C30.9854 40.7348 30.88 40.4804 30.6925 40.2929C30.5049 40.1054 30.2506 40 29.9854 40Z" fill="#041330"/>
<path d="M29.9854 44H24.9854C24.7201 44 24.4658 44.1054 24.2782 44.2929C24.0907 44.4804 23.9854 44.7348 23.9854 45C23.9854 45.2652 24.0907 45.5196 24.2782 45.7071C24.4658 45.8946 24.7201 46 24.9854 46H29.9854C30.2506 46 30.5049 45.8946 30.6925 45.7071C30.88 45.5196 30.9854 45.2652 30.9854 45C30.9854 44.7348 30.88 44.4804 30.6925 44.2929C30.5049 44.1054 30.2506 44 29.9854 44Z" fill="#041330"/>
<path d="M15.9854 42H20.9854C21.2506 42 21.5049 41.8946 21.6925 41.7071C21.88 41.5196 21.9854 41.2652 21.9854 41C21.9854 40.7348 21.88 40.4804 21.6925 40.2929C21.5049 40.1054 21.2506 40 20.9854 40H15.9854C15.7201 40 15.4658 40.1054 15.2782 40.2929C15.0907 40.4804 14.9854 40.7348 14.9854 41C14.9854 41.2652 15.0907 41.5196 15.2782 41.7071C15.4658 41.8946 15.7201 42 15.9854 42Z" fill="#041330"/>
<path d="M15.9854 46H20.9854C21.2506 46 21.5049 45.8946 21.6925 45.7071C21.88 45.5196 21.9854 45.2652 21.9854 45C21.9854 44.7348 21.88 44.4804 21.6925 44.2929C21.5049 44.1054 21.2506 44 20.9854 44H15.9854C15.7201 44 15.4658 44.1054 15.2782 44.2929C15.0907 44.4804 14.9854 44.7348 14.9854 45C14.9854 45.2652 15.0907 45.5196 15.2782 45.7071C15.4658 45.8946 15.7201 46 15.9854 46Z" fill="#041330"/>
<path d="M6.98535 42H11.9854C12.2506 42 12.5049 41.8946 12.6925 41.7071C12.88 41.5196 12.9854 41.2652 12.9854 41C12.9854 40.7348 12.88 40.4804 12.6925 40.2929C12.5049 40.1054 12.2506 40 11.9854 40H6.98535C6.72014 40 6.46578 40.1054 6.27824 40.2929C6.09071 40.4804 5.98535 40.7348 5.98535 41C5.98535 41.2652 6.09071 41.5196 6.27824 41.7071C6.46578 41.8946 6.72014 42 6.98535 42Z" fill="#041330"/>
<path d="M6.98535 46H11.9854C12.2506 46 12.5049 45.8946 12.6925 45.7071C12.88 45.5196 12.9854 45.2652 12.9854 45C12.9854 44.7348 12.88 44.4804 12.6925 44.2929C12.5049 44.1054 12.2506 44 11.9854 44H6.98535C6.72014 44 6.46578 44.1054 6.27824 44.2929C6.09071 44.4804 5.98535 44.7348 5.98535 45C5.98535 45.2652 6.09071 45.5196 6.27824 45.7071C6.46578 45.8946 6.72014 46 6.98535 46Z" fill="#041330"/>
<path d="M29.9854 49H6.98535C6.72014 49 6.46578 49.1054 6.27824 49.2929C6.09071 49.4804 5.98535 49.7348 5.98535 50V54C5.98535 54.2652 6.09071 54.5196 6.27824 54.7071C6.46578 54.8946 6.72014 55 6.98535 55H29.9854C30.2506 55 30.5049 54.8946 30.6925 54.7071C30.88 54.5196 30.9854 54.2652 30.9854 54V50C30.9854 49.7348 30.88 49.4804 30.6925 49.2929C30.5049 49.1054 30.2506 49 29.9854 49ZM28.9854 53H7.98535V51H28.9854V53Z" fill="#041330"/>
<path d="M42.2759 26.7102C42.4643 26.8985 42.7197 27.0043 42.986 27.0043C43.2524 27.0043 43.5078 26.8985 43.6962 26.7102C43.8845 26.5219 43.9903 26.2665 43.9903 26.0002C43.9903 25.7339 43.8845 25.4785 43.6962 25.2902L40.3957 22.0002L43.6962 18.7102C43.8845 18.5219 43.9903 18.2665 43.9903 18.0002C43.9903 17.7339 43.8845 17.4785 43.6962 17.2902C43.5078 17.1019 43.2524 16.9961 42.986 16.9961C42.7197 16.9961 42.4643 17.1019 42.2759 17.2902L38.2753 21.2902C38.1816 21.3831 38.1072 21.4937 38.0564 21.6156C38.0056 21.7375 37.9795 21.8682 37.9795 22.0002C37.9795 22.1322 38.0056 22.2629 38.0564 22.3848C38.1072 22.5066 38.1816 22.6172 38.2753 22.7102L42.2759 26.7102Z" fill="#041330"/>
<path d="M56.6956 17.2902C56.5072 17.1019 56.2518 16.9961 55.9855 16.9961C55.7191 16.9961 55.4637 17.1019 55.2754 17.2902C55.087 17.4785 54.9812 17.7339 54.9812 18.0002C54.9812 18.2665 55.087 18.5219 55.2754 18.7102L58.5758 22.0002L55.2754 25.2902C55.1343 25.4301 55.0381 25.6088 54.999 25.8035C54.96 25.9983 54.9798 26.2002 55.0559 26.3837C55.1321 26.5671 55.2612 26.7237 55.4268 26.8335C55.5923 26.9433 55.7868 27.0013 55.9855 27.0002C56.5455 27.0002 56.2855 27.1202 60.6962 22.7102C60.7899 22.6172 60.8643 22.5066 60.9151 22.3848C60.9659 22.2629 60.992 22.1322 60.992 22.0002C60.992 21.8682 60.9659 21.7375 60.9151 21.6156C60.8643 21.4937 60.7899 21.3831 60.6962 21.2902L56.6956 17.2902Z" fill="#041330"/>
<path d="M47.8351 26.5297L52.8351 18.5297C52.9757 18.3043 53.0209 18.0323 52.9609 17.7735C52.9009 17.5147 52.7405 17.2903 52.5151 17.1497C52.2897 17.0092 52.0176 16.9639 51.7588 17.0239C51.5 17.084 51.2757 17.2443 51.1351 17.4697L46.1351 25.4697C45.9945 25.6952 45.9493 25.9672 46.0093 26.226C46.0693 26.4848 46.2297 26.7092 46.4551 26.8497C46.6805 26.9903 46.9526 27.0356 47.2114 26.9756C47.4702 26.9155 47.6945 26.7552 47.8351 26.5297Z" fill="#041330"/>
<path d="M59.9854 31H38.9854C38.7201 31 38.4658 31.1054 38.2782 31.2929C38.0907 31.4804 37.9854 31.7348 37.9854 32C37.9854 32.2652 38.0907 32.5196 38.2782 32.7071C38.4658 32.8946 38.7201 33 38.9854 33H59.9854C60.2506 33 60.5049 32.8946 60.6925 32.7071C60.88 32.5196 60.9854 32.2652 60.9854 32C60.9854 31.7348 60.88 31.4804 60.6925 31.2929C60.5049 31.1054 60.2506 31 59.9854 31Z" fill="#041330"/>
<path d="M38.9854 38H52.9854C53.2506 38 53.5049 37.8946 53.6925 37.7071C53.88 37.5196 53.9854 37.2652 53.9854 37C53.9854 36.7348 53.88 36.4804 53.6925 36.2929C53.5049 36.1054 53.2506 36 52.9854 36H38.9854C38.7201 36 38.4658 36.1054 38.2782 36.2929C38.0907 36.4804 37.9854 36.7348 37.9854 37C37.9854 37.2652 38.0907 37.5196 38.2782 37.7071C38.4658 37.8946 38.7201 38 38.9854 38Z" fill="#041330"/>
<path d="M38.9854 43H56.9854C57.2506 43 57.5049 42.8946 57.6925 42.7071C57.88 42.5196 57.9854 42.2652 57.9854 42C57.9854 41.7348 57.88 41.4804 57.6925 41.2929C57.5049 41.1054 57.2506 41 56.9854 41H38.9854C38.7201 41 38.4658 41.1054 38.2782 41.2929C38.0907 41.4804 37.9854 41.7348 37.9854 42C37.9854 42.2652 38.0907 42.5196 38.2782 42.7071C38.4658 42.8946 38.7201 43 38.9854 43Z" fill="#041330"/>
<path d="M59.9854 46H38.9854C38.7201 46 38.4658 46.1054 38.2782 46.2929C38.0907 46.4804 37.9854 46.7348 37.9854 47C37.9854 47.2652 38.0907 47.5196 38.2782 47.7071C38.4658 47.8946 38.7201 48 38.9854 48H59.9854C60.2506 48 60.5049 47.8946 60.6925 47.7071C60.88 47.5196 60.9854 47.2652 60.9854 47C60.9854 46.7348 60.88 46.4804 60.6925 46.2929C60.5049 46.1054 60.2506 46 59.9854 46Z" fill="#041330"/>
<path d="M54.9854 51H38.9854C38.7201 51 38.4658 51.1054 38.2782 51.2929C38.0907 51.4804 37.9854 51.7348 37.9854 52C37.9854 52.2652 38.0907 52.5196 38.2782 52.7071C38.4658 52.8946 38.7201 53 38.9854 53H54.9854C55.2506 53 55.5049 52.8946 55.6925 52.7071C55.88 52.5196 55.9854 52.2652 55.9854 52C55.9854 51.7348 55.88 51.4804 55.6925 51.2929C55.5049 51.1054 55.2506 51 54.9854 51Z" fill="#041330"/>
</g>
<defs>
<clipPath id="clip0_941_1593">
<rect width="64" height="64" fill="white" transform="translate(0.985352)"/>
</clipPath>
</defs>
</svg>
