<svg width="30" height="30" viewBox="0 0 30 30" fill="none" xmlns="http://www.w3.org/2000/svg">
<path d="M14.9994 24.6085C9.69497 24.6085 5.38965 20.3083 5.38965 14.9996C5.38965 9.70278 9.68135 5.39062 14.9985 5.39062C20.3038 5.39062 24.6083 9.69086 24.6083 14.9996C24.6083 20.2776 20.3336 24.6085 14.9994 24.6085ZM14.9994 6.42037C10.2686 6.42037 6.42024 10.2687 6.42024 14.9996C6.42024 19.7304 10.2686 23.5788 14.9994 23.5788C19.7302 23.5788 23.5785 19.7304 23.5785 14.9996C23.5785 10.2687 19.7294 6.42037 14.9994 6.42037Z" fill="#010231"/>
<path d="M15.0009 22.303C10.9645 22.303 7.69824 19.0283 7.69824 15.0004C7.69824 11.9996 9.51347 9.39294 12.1584 8.27214C15.8246 6.71987 20.1376 8.40235 21.729 12.1579C23.7664 16.9696 20.2091 22.303 15.0009 22.303ZM15.0009 8.72914C11.5423 8.72914 8.72883 11.5426 8.72883 15.0012C8.72883 18.4598 11.5423 21.2733 15.0009 21.2733C18.4594 21.2733 21.2729 18.4598 21.2729 15.0012C21.2729 11.5426 18.4594 8.72914 15.0009 8.72914Z" fill="#010231"/>
<path d="M16.111 6.48823C15.8267 6.48823 15.5961 6.2576 15.5961 5.97336V3.70026C15.5961 3.41602 15.8267 3.18539 16.111 3.18539H16.1876L14.9995 1.43313L13.8115 3.18539H13.8881C14.1724 3.18539 14.403 3.41602 14.403 3.70026V5.97336C14.403 6.2576 14.1724 6.48823 13.8881 6.48823C13.6039 6.48823 13.3732 6.2576 13.3732 5.97336V4.21514H12.8405C12.6499 4.21514 12.4746 4.10961 12.3852 3.9411C12.2959 3.7726 12.3069 3.56836 12.4141 3.41092L14.5732 0.226373C14.6694 0.0851027 14.8285 0 14.9995 0C15.1706 0 15.3297 0.0842517 15.4259 0.226373L17.585 3.41092C17.8164 3.75133 17.5722 4.21514 17.1586 4.21514H16.6259V5.97336C16.6259 6.2576 16.3952 6.48823 16.111 6.48823Z" fill="#010231"/>
<path d="M21.8046 9.76535C21.6038 9.56451 21.6038 9.23856 21.8046 9.03687L23.4122 7.42928C23.6147 7.22844 23.9381 7.22844 24.1407 7.42928L24.1951 7.48375L24.5943 5.40469L22.5152 5.80382C22.5357 5.83275 22.7203 5.95871 22.7203 6.22252C22.7203 6.35954 22.6659 6.48975 22.5697 6.58676L20.9621 8.19435C20.7613 8.3952 20.4353 8.3952 20.2336 8.19435C20.0328 7.99351 20.0328 7.66757 20.2336 7.46588L21.477 6.22252L21.1 5.84552C20.8089 5.55447 20.9604 5.05407 21.3663 4.97492L25.1449 4.24984C25.4998 4.18091 25.8163 4.49324 25.7474 4.85237L25.0223 8.63093C24.9449 9.03432 24.4453 9.19091 24.1517 8.8973L23.7747 8.5203L22.5314 9.76365C22.3331 9.96704 22.0055 9.96619 21.8046 9.76535Z" fill="#010231"/>
<path d="M25.7848 17.159V16.6263H24.0266C23.7423 16.6263 23.5117 16.3957 23.5117 16.1114C23.5117 15.8272 23.7423 15.5966 24.0266 15.5966H26.2997C26.5839 15.5966 26.8145 15.8272 26.8145 16.1114V16.188L28.5668 15L26.8145 13.812V13.8885C26.8145 14.1728 26.5839 14.4034 26.2997 14.4034H24.0266C23.7423 14.4034 23.5117 14.1728 23.5117 13.8885C23.5117 13.6043 23.7423 13.3737 24.0266 13.3737H25.7848V12.8409C25.7848 12.4282 26.2486 12.1831 26.589 12.4146L29.7735 14.5736C30.0765 14.7796 30.0739 15.223 29.7735 15.4264L26.589 17.5854C26.2426 17.8203 25.7848 17.5667 25.7848 17.159Z" fill="#010231"/>
<path d="M25.1449 25.7472L21.3663 25.0221C20.963 24.9447 20.8072 24.4443 21.1 24.1515L21.477 23.7745L20.2336 22.5312C20.0328 22.3303 20.0328 22.0035 20.2336 21.8027C20.4345 21.6018 20.7613 21.6018 20.9621 21.8027L22.5697 23.4103C22.6667 23.5073 22.7203 23.6375 22.7203 23.7745C22.7203 24.0383 22.534 24.1677 22.5152 24.1932L24.5943 24.5923L24.1951 22.5133C24.1662 22.5337 24.0403 22.7184 23.7764 22.7184C23.6403 22.7184 23.5092 22.6639 23.4122 22.5678L21.8046 20.9602C21.6038 20.7593 21.6038 20.4334 21.8046 20.2317C22.0055 20.0308 22.3314 20.0308 22.5331 20.2317L23.7764 21.475L24.1534 21.098C24.4445 20.807 24.9449 20.9585 25.024 21.3644L25.7491 25.143C25.8172 25.4961 25.5091 25.8144 25.1449 25.7472Z" fill="#010231"/>
<path d="M14.5737 29.7745L12.4147 26.59C12.1832 26.2496 12.4275 25.7858 12.8411 25.7858H13.3738V24.0276C13.3738 23.7433 13.6044 23.5127 13.8887 23.5127C14.1729 23.5127 14.4035 23.7433 14.4035 24.0276V26.3007C14.4035 26.5849 14.1729 26.8155 13.8887 26.8155H13.8121L15.0001 28.5678L16.1881 26.8155H16.1115C15.8273 26.8155 15.5967 26.5849 15.5967 26.3007V24.0276C15.5967 23.7433 15.8273 23.5127 16.1115 23.5127C16.3958 23.5127 16.6264 23.7433 16.6264 24.0276V25.7858H17.1591C17.5719 25.7858 17.817 26.2496 17.5855 26.59L15.4265 29.7745C15.2222 30.0758 14.778 30.0758 14.5737 29.7745Z" fill="#010231"/>
<path d="M4.75808 25.7548C4.43725 25.7548 4.1913 25.4629 4.25257 25.143L4.97764 21.3644C5.05509 20.961 5.55464 20.8044 5.84824 21.098L6.22524 21.475L7.46859 20.2317C7.66943 20.0308 7.99537 20.0308 8.19706 20.2317C8.3979 20.4325 8.3979 20.7593 8.19706 20.9602L6.58948 22.5678C6.49332 22.6648 6.36226 22.7184 6.22524 22.7184C5.96228 22.7184 5.83462 22.5337 5.80654 22.5133L5.40741 24.5923L7.48646 24.1932C7.46603 24.1651 7.28136 24.0375 7.28136 23.7745C7.28136 23.6383 7.33583 23.5073 7.43199 23.4103L9.03957 21.8027C9.24041 21.6018 9.56635 21.6018 9.76805 21.8027C9.96889 22.0035 9.96889 22.3295 9.76805 22.5312L8.5247 23.7745L8.90171 24.1515C9.19276 24.4426 9.04127 24.943 8.63534 25.0221L4.8568 25.7472C4.82276 25.7514 4.79042 25.7548 4.75808 25.7548Z" fill="#010231"/>
<path d="M3.41079 17.5855L0.226266 15.4265C-0.0766973 15.2205 -0.0741443 14.7772 0.226266 14.5738L3.41079 12.4147C3.7512 12.1832 4.21501 12.4275 4.21501 12.8411V13.3738H5.97322C6.25746 13.3738 6.48808 13.6044 6.48808 13.8887C6.48808 14.1729 6.25746 14.4036 5.97322 14.4036H3.70014C3.4159 14.4036 3.18527 14.1729 3.18527 13.8887V13.8121L1.43302 15.0001L3.18527 16.1882V16.1116C3.18527 15.8273 3.4159 15.5967 3.70014 15.5967H5.97322C6.25746 15.5967 6.48808 15.8273 6.48808 16.1116C6.48808 16.3958 6.25746 16.6264 5.97322 16.6264H4.21501V17.1592C4.21501 17.3498 4.10948 17.5251 3.94098 17.6145C3.77758 17.7021 3.57078 17.6936 3.41079 17.5855Z" fill="#010231"/>
<path d="M7.46683 9.76747L6.22349 8.52412L5.84649 8.90113C5.55544 9.19218 5.05504 9.04069 4.97589 8.63475L4.25082 4.8562C4.18189 4.50047 4.49421 4.18474 4.85334 4.25367L8.63188 4.97874C9.03527 5.05619 9.19185 5.55574 8.89825 5.84934L8.52125 6.22635L9.76459 7.4697C9.96543 7.67054 9.96543 7.99648 9.76459 8.19818C9.56375 8.39902 9.23781 8.39902 9.03612 8.19818L7.42854 6.59059C7.2277 6.38975 7.2277 6.0638 7.42854 5.86211L7.483 5.80764L5.40396 5.40851L5.80308 7.48757L5.85755 7.43311C6.05839 7.23226 6.38433 7.23226 6.58602 7.43311L8.1936 9.04069C8.39445 9.24154 8.39445 9.56748 8.1936 9.76917C7.99532 9.96746 7.66767 9.96831 7.46683 9.76747Z" fill="#010231"/>
<path d="M14.9996 16.1575C13.381 16.1575 12.0645 14.841 12.0645 13.2223C12.0645 11.6036 13.381 10.2871 14.9996 10.2871C16.6183 10.2871 17.9348 11.6036 17.9348 13.2223C17.9348 14.841 16.6183 16.1575 14.9996 16.1575ZM14.9996 11.3169C13.9495 11.3169 13.095 12.1713 13.095 13.2215C13.095 14.2716 13.9495 15.126 14.9996 15.126C16.0498 15.126 16.9042 14.2716 16.9042 13.2215C16.9042 12.1713 16.0498 11.3169 14.9996 11.3169Z" fill="#010231"/>
<path d="M19.2456 19.9068C18.9878 17.8141 17.2049 16.1563 14.9991 16.1563C12.8409 16.1563 11.0154 17.769 10.7525 19.9068C10.7176 20.1893 10.4606 20.3893 10.178 20.3553C9.89547 20.3204 9.69463 20.0634 9.72952 19.7817C10.1576 16.2959 13.8246 14.1743 17.0645 15.5436C18.7946 16.2746 20.0354 17.8856 20.2669 19.7808C20.3018 20.0634 20.1009 20.3204 19.8184 20.3544C19.5435 20.3902 19.2814 20.1919 19.2456 19.9068Z" fill="#010231"/>
</svg>
