<svg width="64" height="64" viewBox="0 0 64 64" fill="none" xmlns="http://www.w3.org/2000/svg">
<path d="M61 54H60V18C60 16.9391 59.5786 15.9217 58.8284 15.1716C58.0783 14.4214 57.0609 14 56 14H51V1C51 0.734784 50.8946 0.48043 50.7071 0.292893C50.5196 0.105357 50.2652 0 50 0L14 0C13.7348 0 13.4804 0.105357 13.2929 0.292893C13.1054 0.48043 13 0.734784 13 1V14H8C6.93913 14 5.92172 14.4214 5.17157 15.1716C4.42143 15.9217 4 16.9391 4 18V54H3C2.20435 54 1.44129 54.3161 0.87868 54.8787C0.31607 55.4413 0 56.2043 0 57L0 59C0 60.3261 0.526784 61.5979 1.46447 62.5355C2.40215 63.4732 3.67392 64 5 64H59C60.3261 64 61.5979 63.4732 62.5355 62.5355C63.4732 61.5979 64 60.3261 64 59V57C64 56.2043 63.6839 55.4413 63.1213 54.8787C62.5587 54.3161 61.7957 54 61 54ZM10 50V20H13V50H10ZM15 8H49V50H15V8ZM51 20H54V50H51V20ZM15 2H49V6H15V2ZM6 18C6 17.4696 6.21071 16.9609 6.58579 16.5858C6.96086 16.2107 7.46957 16 8 16H13V18H9C8.73478 18 8.48043 18.1054 8.29289 18.2929C8.10536 18.4804 8 18.7348 8 19V51C8 51.2652 8.10536 51.5196 8.29289 51.7071C8.48043 51.8946 8.73478 52 9 52H55C55.2652 52 55.5196 51.8946 55.7071 51.7071C55.8946 51.5196 56 51.2652 56 51V19C56 18.7348 55.8946 18.4804 55.7071 18.2929C55.5196 18.1054 55.2652 18 55 18H51V16H56C56.5304 16 57.0391 16.2107 57.4142 16.5858C57.7893 16.9609 58 17.4696 58 18V54H6V18ZM40.13 56L39.46 57H24.54L23.87 56H40.13ZM62 59C62 59.7957 61.6839 60.5587 61.1213 61.1213C60.5587 61.6839 59.7957 62 59 62H5C4.20435 62 3.44129 61.6839 2.87868 61.1213C2.31607 60.5587 2 59.7957 2 59V57C2 56.7348 2.10536 56.4804 2.29289 56.2929C2.48043 56.1054 2.73478 56 3 56H21.46L23.17 58.55C23.59 59.19 22.76 59 40 59C40.69 59 40.74 58.7 42.54 56H61C61.2652 56 61.5196 56.1054 61.7071 56.2929C61.8946 56.4804 62 56.7348 62 57V59Z" fill="#041330"/>
<path d="M18.0002 3C17.7349 3 17.4805 3.10536 17.2929 3.29289C17.1054 3.48043 17 3.73478 17 4C17 4.26522 17.1054 4.51957 17.2929 4.70711C17.4805 4.89464 17.7349 5 18.0002 5C18.2654 5 18.5198 4.89464 18.7074 4.70711C18.8949 4.51957 19.0003 4.26522 19.0003 4C19.0003 3.73478 18.8949 3.48043 18.7074 3.29289C18.5198 3.10536 18.2654 3 18.0002 3Z" fill="#041330"/>
<path d="M22.0002 3C21.7349 3 21.4805 3.10536 21.2929 3.29289C21.1054 3.48043 21 3.73478 21 4C21 4.26522 21.1054 4.51957 21.2929 4.70711C21.4805 4.89464 21.7349 5 22.0002 5C22.2654 5 22.5198 4.89464 22.7074 4.70711C22.8949 4.51957 23.0003 4.26522 23.0003 4C23.0003 3.73478 22.8949 3.48043 22.7074 3.29289C22.5198 3.10536 22.2654 3 22.0002 3Z" fill="#041330"/>
<path d="M26.0002 3C25.7349 3 25.4805 3.10536 25.2929 3.29289C25.1054 3.48043 25 3.73478 25 4C25 4.26522 25.1054 4.51957 25.2929 4.70711C25.4805 4.89464 25.7349 5 26.0002 5C26.2654 5 26.5198 4.89464 26.7074 4.70711C26.8949 4.51957 27.0003 4.26522 27.0003 4C27.0003 3.73478 26.8949 3.48043 26.7074 3.29289C26.5198 3.10536 26.2654 3 26.0002 3Z" fill="#041330"/>
<path d="M45 10H19C18.7348 10 18.4804 10.1054 18.2929 10.2929C18.1054 10.4804 18 10.7348 18 11V21C18 21.2652 18.1054 21.5196 18.2929 21.7071C18.4804 21.8946 18.7348 22 19 22H45C45.2652 22 45.5196 21.8946 45.7071 21.7071C45.8946 21.5196 46 21.2652 46 21V11C46 10.7348 45.8946 10.4804 45.7071 10.2929C45.5196 10.1054 45.2652 10 45 10ZM44 20H20V12H44V20Z" fill="#041330"/>
<path d="M32 32C32.7911 32 33.5645 31.7654 34.2223 31.3259C34.8801 30.8864 35.3928 30.2616 35.6955 29.5307C35.9983 28.7998 36.0775 27.9956 35.9231 27.2196C35.7688 26.4437 35.3878 25.731 34.8284 25.1716C34.269 24.6122 33.5563 24.2312 32.7804 24.0769C32.0044 23.9225 31.2002 24.0017 30.4693 24.3045C29.7384 24.6072 29.1136 25.1199 28.6741 25.7777C28.2346 26.4355 28 27.2089 28 28C28 29.0609 28.4214 30.0783 29.1716 30.8284C29.9217 31.5786 30.9391 32 32 32ZM32 26C32.3956 26 32.7822 26.1173 33.1111 26.3371C33.44 26.5568 33.6964 26.8692 33.8478 27.2346C33.9991 27.6001 34.0387 28.0022 33.9616 28.3902C33.8844 28.7781 33.6939 29.1345 33.4142 29.4142C33.1345 29.6939 32.7781 29.8844 32.3902 29.9616C32.0022 30.0387 31.6001 29.9991 31.2346 29.8478C30.8692 29.6964 30.5568 29.44 30.3371 29.1111C30.1173 28.7822 30 28.3956 30 28C30 27.4696 30.2107 26.9609 30.5858 26.5858C30.9609 26.2107 31.4696 26 32 26Z" fill="#041330"/>
<path d="M42 24C41.2089 24 40.4355 24.2346 39.7777 24.6741C39.1199 25.1136 38.6072 25.7384 38.3045 26.4693C38.0017 27.2002 37.9225 28.0044 38.0769 28.7804C38.2312 29.5563 38.6122 30.269 39.1716 30.8284C39.731 31.3878 40.4437 31.7688 41.2196 31.9231C41.9956 32.0775 42.7998 31.9983 43.5307 31.6955C44.2616 31.3928 44.8864 30.8801 45.3259 30.2223C45.7654 29.5645 46 28.7911 46 28C46 26.9391 45.5786 25.9217 44.8284 25.1716C44.0783 24.4214 43.0609 24 42 24ZM42 30C41.6044 30 41.2178 29.8827 40.8889 29.6629C40.56 29.4432 40.3036 29.1308 40.1522 28.7654C40.0009 28.3999 39.9613 27.9978 40.0384 27.6098C40.1156 27.2219 40.3061 26.8655 40.5858 26.5858C40.8655 26.3061 41.2219 26.1156 41.6098 26.0384C41.9978 25.9613 42.3999 26.0009 42.7654 26.1522C43.1308 26.3036 43.4432 26.56 43.6629 26.8889C43.8827 27.2178 44 27.6044 44 28C44 28.5304 43.7893 29.0391 43.4142 29.4142C43.0391 29.7893 42.5304 30 42 30Z" fill="#041330"/>
<path d="M22 32C22.7911 32 23.5645 31.7654 24.2223 31.3259C24.8801 30.8864 25.3928 30.2616 25.6955 29.5307C25.9983 28.7998 26.0775 27.9956 25.9231 27.2196C25.7688 26.4437 25.3878 25.731 24.8284 25.1716C24.269 24.6122 23.5563 24.2312 22.7804 24.0769C22.0044 23.9225 21.2002 24.0017 20.4693 24.3045C19.7384 24.6072 19.1136 25.1199 18.6741 25.7777C18.2346 26.4355 18 27.2089 18 28C18 29.0609 18.4214 30.0783 19.1716 30.8284C19.9217 31.5786 20.9391 32 22 32ZM22 26C22.3956 26 22.7822 26.1173 23.1111 26.3371C23.44 26.5568 23.6964 26.8692 23.8478 27.2346C23.9991 27.6001 24.0387 28.0022 23.9616 28.3902C23.8844 28.7781 23.6939 29.1345 23.4142 29.4142C23.1345 29.6939 22.7781 29.8844 22.3902 29.9616C22.0022 30.0387 21.6001 29.9991 21.2346 29.8478C20.8692 29.6964 20.5568 29.44 20.3371 29.1111C20.1173 28.7822 20 28.3956 20 28C20 27.4696 20.2107 26.9609 20.5858 26.5858C20.9609 26.2107 21.4696 26 22 26Z" fill="#041330"/>
<path d="M19 36H25C25.2652 36 25.5196 35.8946 25.7071 35.7071C25.8946 35.5196 26 35.2652 26 35C26 34.7348 25.8946 34.4804 25.7071 34.2929C25.5196 34.1054 25.2652 34 25 34H19C18.7348 34 18.4804 34.1054 18.2929 34.2929C18.1054 34.4804 18 34.7348 18 35C18 35.2652 18.1054 35.5196 18.2929 35.7071C18.4804 35.8946 18.7348 36 19 36Z" fill="#041330"/>
<path d="M19 40H25C25.2652 40 25.5196 39.8946 25.7071 39.7071C25.8946 39.5196 26 39.2652 26 39C26 38.7348 25.8946 38.4804 25.7071 38.2929C25.5196 38.1054 25.2652 38 25 38H19C18.7348 38 18.4804 38.1054 18.2929 38.2929C18.1054 38.4804 18 38.7348 18 39C18 39.2652 18.1054 39.5196 18.2929 39.7071C18.4804 39.8946 18.7348 40 19 40Z" fill="#041330"/>
<path d="M29 36H35C35.2652 36 35.5196 35.8946 35.7071 35.7071C35.8946 35.5196 36 35.2652 36 35C36 34.7348 35.8946 34.4804 35.7071 34.2929C35.5196 34.1054 35.2652 34 35 34H29C28.7348 34 28.4804 34.1054 28.2929 34.2929C28.1054 34.4804 28 34.7348 28 35C28 35.2652 28.1054 35.5196 28.2929 35.7071C28.4804 35.8946 28.7348 36 29 36Z" fill="#041330"/>
<path d="M29 40H35C35.2652 40 35.5196 39.8946 35.7071 39.7071C35.8946 39.5196 36 39.2652 36 39C36 38.7348 35.8946 38.4804 35.7071 38.2929C35.5196 38.1054 35.2652 38 35 38H29C28.7348 38 28.4804 38.1054 28.2929 38.2929C28.1054 38.4804 28 38.7348 28 39C28 39.2652 28.1054 39.5196 28.2929 39.7071C28.4804 39.8946 28.7348 40 29 40Z" fill="#041330"/>
<path d="M45 34H39C38.7348 34 38.4804 34.1054 38.2929 34.2929C38.1054 34.4804 38 34.7348 38 35C38 35.2652 38.1054 35.5196 38.2929 35.7071C38.4804 35.8946 38.7348 36 39 36H45C45.2652 36 45.5196 35.8946 45.7071 35.7071C45.8946 35.5196 46 35.2652 46 35C46 34.7348 45.8946 34.4804 45.7071 34.2929C45.5196 34.1054 45.2652 34 45 34Z" fill="#041330"/>
<path d="M45 38H39C38.7348 38 38.4804 38.1054 38.2929 38.2929C38.1054 38.4804 38 38.7348 38 39C38 39.2652 38.1054 39.5196 38.2929 39.7071C38.4804 39.8946 38.7348 40 39 40H45C45.2652 40 45.5196 39.8946 45.7071 39.7071C45.8946 39.5196 46 39.2652 46 39C46 38.7348 45.8946 38.4804 45.7071 38.2929C45.5196 38.1054 45.2652 38 45 38Z" fill="#041330"/>
<path d="M45 42H19C18.7348 42 18.4804 42.1054 18.2929 42.2929C18.1054 42.4804 18 42.7348 18 43V47C18 47.2652 18.1054 47.5196 18.2929 47.7071C18.4804 47.8946 18.7348 48 19 48H45C45.2652 48 45.5196 47.8946 45.7071 47.7071C45.8946 47.5196 46 47.2652 46 47V43C46 42.7348 45.8946 42.4804 45.7071 42.2929C45.5196 42.1054 45.2652 42 45 42ZM44 46H20V44H44V46Z" fill="#041330"/>
</svg>
